<?xml version="1.0" standalone="no"?>
<!DOCTYPE svg PUBLIC "-//W3C//DTD SVG 1.1//EN" "http://www.w3.org/Graphics/SVG/1.1/DTD/svg11.dtd" >
<svg>
<metadata>
Created by FontForge 20090914 at Fri Mar  3 09:13:03 2017
 By www-data
Copyright (c) Phanlop Thongsuk, 1995-2004. All rights reserved.
</metadata>
<defs>
<font id="PSLKandaModernExtra" horiz-adv-x="0" >
  <font-face 
    font-family="PSL Kanda Modern Extra"
    font-weight="400"
    font-stretch="normal"
    units-per-em="2048"
    panose-1="2 11 6 4 2 2 2 2 2 4"
    ascent="1638"
    descent="-410"
    x-height="698"
    cap-height="965"
    bbox="-954 -623 1499 1599"
    underline-thickness="50"
    underline-position="-115"
    unicode-range="U+0020-U+F71D"
  />
<missing-glyph 
 />
    <glyph glyph-name=".notdef" 
 />
    <glyph glyph-name="space" unicode=" " horiz-adv-x="512" 
 />
    <glyph glyph-name="space" unicode="&#xa0;" horiz-adv-x="512" 
 />
    <glyph glyph-name="exclam" unicode="!" horiz-adv-x="391" 
d="M289 705l-43 -418h-96l-46 418v260h185v-260zM303 98c0 -31.333 -9.83301 -56.833 -29.5 -76.5s-45.167 -29.5 -76.5 -29.5s-57 9.83301 -77 29.5s-30 45.167 -30 76.5s10.333 57 31 77s46 30 76 30c31.333 0 56.833 -10 76.5 -30s29.5 -45.667 29.5 -77z" />
    <glyph glyph-name="quotedbl" unicode="&#x22;" horiz-adv-x="616" 
d="M504 584h-154v381h154v-381zM266 584h-153v381h153v-381z" />
    <glyph glyph-name="numbersign" unicode="#" horiz-adv-x="768" 
d="M725 551h-131l-21 -156h113v-114h-129l-41 -281h-127l41 281h-131l-41 -281h-127l39 281h-125v114h143l23 156h-125v115h139l39 280h129l-41 -280h131l39 280h129l-41 -280h115v-115zM469 551h-133l-21 -156h131z" />
    <glyph glyph-name="dollar" unicode="$" horiz-adv-x="768" 
d="M745 283c0 -96 -30.668 -171.333 -92.001 -226c-57.333 -47.333 -133.666 -74 -228.999 -80v-104h-74v104c-99.333 4.66699 -179.166 35 -239.499 91s-89.5 134.333 -87.5 235h170c0 -120 52.333 -184 157 -192v309c-95.333 27.333 -165 58 -209 92
c-65.333 50.667 -98 119.667 -98 207c0 82 30.667 148.333 92 199c57.333 44.667 129 68.334 215 71.001v105h74v-105c87.333 -1.33301 157.666 -24.333 210.999 -69c57.333 -49.333 86 -118.333 86 -207h-170c-4 92.667 -46.333 139.667 -127 141v-268
c100.667 -26 175 -57.333 223 -94c65.333 -50.667 98 -120.334 98 -209.001zM349.999 604v250.001c-91.333 -2.66699 -137 -44.334 -137 -125.001c0 -61.333 45.667 -103 137 -125zM572.999 262.001c0 68.667 -49.667 116.668 -149 144.001v-295
c99.333 9.33301 149 59.666 149 150.999z" />
    <glyph glyph-name="percent" unicode="%" horiz-adv-x="1368" 
d="M1257 254c0 -180 -77.667 -270 -233 -270c-157.333 0 -236 90 -236 270c0 79.333 19.5 144.5 58.5 195.5s98.167 76.5 177.5 76.5c78 0 137.333 -26.667 178 -80c36.667 -48.667 55 -112.667 55 -192zM1001 979l-530 -1010h-125l533 1010h122zM580 692
c0 -181.333 -78.667 -272 -236 -272c-155.333 0 -233 90.667 -233 272c0 79.333 19.333 144.666 58 195.999s97 77 175 77c79.333 0 139.333 -26.667 180 -80c37.333 -49.333 56 -113.666 56 -192.999zM1118 254c0 113.333 -32 170 -96 170c-62.667 0 -94 -56.667 -94 -170
s31.333 -170 94 -170c64 0 96 56.667 96 170zM440 692c0 113.333 -32 170 -96 170c-62.667 0 -94 -56.667 -94 -170s31.333 -170 94 -170c64 0 96 56.667 96 170z" />
    <glyph glyph-name="ampersand" unicode="&#x26;" horiz-adv-x="893" 
d="M922 0l-210.999 2l-84 98c-70 -77.333 -160.333 -116 -271 -116c-92.667 0 -168 25.5 -226 76.5s-87 121.5 -87 211.5c0 112 72.333 204.333 217 277c-61.333 76.667 -92 145 -92 205c0 69.333 23.167 125.5 69.5 168.5s104.5 64.5 174.5 64.5
c69.333 0 127.333 -19 174 -57c50.667 -42.667 76 -101.334 76 -176.001c0 -101.333 -56.667 -182.666 -170 -243.999l135 -160c9.33301 35.333 16.666 75 21.999 119h152c-10 -102.667 -34.667 -182 -74 -238zM506.001 758c0 66.667 -30 100.002 -90 100.002
c-26 0 -48.167 -8.83301 -66.5 -26.5s-27.5 -40.834 -27.5 -69.501c0 -24.667 9.33301 -51.334 28 -80.001l53 -68c68.667 48 103 96 103 144zM532.001 215.002l-179.998 220.999c-47.333 -27.333 -77.333 -45.666 -90 -54.999c-32.667 -30 -49 -67.667 -49 -113
c0 -46 13.667 -82.667 41 -110s62.666 -41 105.999 -41c67.333 0 124.666 32.667 171.999 98z" />
    <glyph glyph-name="quotesingle" unicode="'" horiz-adv-x="391" 
d="M272 584h-153v381h153v-381z" />
    <glyph glyph-name="parenleft" unicode="(" horiz-adv-x="391" 
d="M410 -256l-146 2c-132 206 -198 412.333 -198 619c0 216.667 66 424 198 622h144c-113.333 -202 -170 -409.333 -170 -622c0 -222.667 57.333 -429.667 172 -621z" />
    <glyph glyph-name="parenright" unicode=")" horiz-adv-x="391" 
d="M326 365c0 -216 -67 -422.999 -201 -620.999h-137c112 200.667 168 407.667 168 621c0 219.333 -56.667 426.666 -170 621.999h139c134 -206 201 -413.333 201 -622z" />
    <glyph glyph-name="asterisk" unicode="*" horiz-adv-x="516" 
d="M496 770l-154 -51l94 -117l-84 -59l-96 123l-88 -123l-88 59l92 117l-147 51l34 98l146 -55v152h108v-152l144 55z" />
    <glyph glyph-name="plus" unicode="+" horiz-adv-x="766" 
d="M725 274h-276v-274h-134v274h-274v134h274v274h134v-274h276v-134z" />
    <glyph glyph-name="comma" unicode="," horiz-adv-x="381" 
d="M311 74c0 -87.333 -48.334 -165.333 -145.001 -234l-74 31c60 39.333 94.333 79.666 103 120.999c-33.333 -1.33301 -61.166 7.83398 -83.499 27.501s-33.5 45.167 -33.5 76.5c0 30 10.5 56 31.5 78s47.833 33 80.5 33c80.667 0 121 -44.333 121 -133z" />
    <glyph glyph-name="hyphen" unicode="-" horiz-adv-x="543" 
d="M475 295h-409v145h409v-145z" />
    <glyph glyph-name="period" unicode="." horiz-adv-x="381" 
d="M299 98c0 -30 -10.5 -55.167 -31.5 -75.5s-46.833 -30.5 -77.5 -30.5c-30 0 -55.5 10.167 -76.5 30.5s-31.5 45.5 -31.5 75.5s10.5 55.667 31.5 77s46.5 32 76.5 32c30.667 0 56.5 -10.667 77.5 -32s31.5 -47 31.5 -77z" />
    <glyph glyph-name="slash" unicode="/" horiz-adv-x="492" 
d="M526 987l-395 -1007h-164l393 1007h166z" />
    <glyph glyph-name="zero" unicode="0" horiz-adv-x="766" 
d="M719 473c0 -326 -112 -489 -336 -489c-222.667 0 -334 163 -334 489c0 328 111.333 492 334 492c224 0 336 -164 336 -492zM549 473c0 233.333 -55.333 350 -166 350c-109.333 0 -164 -116.667 -164 -350s54.667 -350 164 -350c110.667 0 166 116.667 166 350z" />
    <glyph glyph-name="one" unicode="1" horiz-adv-x="766" 
d="M489 0h-186.001v655h-231v136c160.667 0 253.334 51.667 278.001 155h139v-946z" />
    <glyph glyph-name="two" unicode="2" horiz-adv-x="766" 
d="M717 670c0 -116 -71.667 -221.999 -215 -317.999l-150 -98c-48.667 -36.667 -80 -70.667 -94 -102h457v-152h-662c0 148.667 70.333 271 211 367c120 81.333 182.333 123.666 187 126.999c62.667 54 94.667 111.333 96 172c2.66699 104.667 -48 157 -152 157
c-56 0 -97.667 -20.333 -125 -61c-22.667 -35.333 -32 -79 -28 -131h-172c-2.66699 100.667 25 181.5 83 242.5s140 91.5 246 91.5c110.667 0 194 -33 250 -99c45.333 -52 68 -117.333 68 -196z" />
    <glyph glyph-name="three" unicode="3" horiz-adv-x="766" 
d="M725 274c0 -87.333 -33.167 -157.504 -99.5 -210.504s-147.166 -79.5 -242.499 -79.5c-108 0 -193.333 28.667 -256 86c-57.333 56 -86 126.333 -86 211h172c1.33301 -45.333 15.666 -81.666 42.999 -108.999c30 -32.667 72.333 -49 127 -49c50.667 0 92 14 124 42
s48 67.333 48 118c0 106 -82.667 155 -248 147v131c140.667 -5.33301 211 40.334 211 137.001c0 37.333 -13 67.5 -39 90.5s-59.333 34.5 -100 34.5c-48 0 -85 -15.333 -111 -46s-39 -65 -39 -103h-170c0 80.667 29.833 149.334 89.5 206.001s137.167 85 232.5 85
c82 0 152.333 -21.333 211 -64c64 -48 96 -112 96 -192c0 -97.333 -41.667 -163.666 -125 -198.999c48 -12 87 -39.667 117 -83s45 -94.333 45 -153z" />
    <glyph glyph-name="four" unicode="4" horiz-adv-x="766" 
d="M723 221h-119v-221h-166v221h-405v160l409 565h162v-590h119v-135zM438 356v383l-264 -383h264z" />
    <glyph glyph-name="five" unicode="5" horiz-adv-x="766" 
d="M723 322c0 -88 -25.999 -163.999 -77.999 -227.999c-62.667 -73.333 -148.667 -110 -258 -110c-98 0 -177 23.667 -237 71c-66 53.333 -100.333 128.666 -103 225.999h170c10.667 -105.333 66 -158 166 -158c112 0 168 65.333 168 196c0 53.333 -13.667 97.333 -41 132
c-31.333 36.667 -75 55 -131 55c-76.667 0 -125.334 -28.667 -146.001 -86h-170l105 526h504v-151h-377l-39 -207c44 36.667 98 55 162 55c94 0 168.333 -30 223 -90s82 -137 82 -231z" />
    <glyph glyph-name="six" unicode="6" horiz-adv-x="766" 
d="M723 305c0 -92.667 -29.999 -169.333 -89.999 -230s-138 -91 -234 -91c-132 0 -226.667 47 -284 141c-46.667 78 -70 194.667 -70 350c0 131.333 27.333 241.333 82 330c64 106.667 159 160 285 160c78.667 0 146 -25 202 -75s86.333 -115.333 91 -196h-170
c-8.66699 86 -52.667 129 -132 129c-110 0 -172 -97 -186 -291c39.333 64.667 105.666 97 198.999 97c92.667 0 167 -30.5 223 -91.5s84 -138.5 84 -232.5zM551.001 309.001c0 52 -13.668 95.499 -41.001 130.499s-66.333 52.5 -117 52.5c-52 0 -92 -17.167 -120 -51.5
s-42 -78.166 -42 -131.499c0 -52 13.667 -95 41 -129c28.667 -38 69 -57 121 -57c50.667 0 90.334 19 119.001 57c26 34 39 77 39 129z" />
    <glyph glyph-name="seven" unicode="7" horiz-adv-x="766" 
d="M711 809c-213.333 -237.333 -331 -507 -353 -809h-186c19.333 284 138 549 356 795h-481v151h664v-137z" />
    <glyph glyph-name="eight" unicode="8" horiz-adv-x="766" 
d="M725 283c0 -92 -32.1689 -164.833 -96.502 -218.5s-146.166 -80.5 -245.499 -80.5c-100 0 -182 26.833 -246 80.5s-96 126.5 -96 218.5c0 117.333 52.667 193.666 158 228.999c-78 40.667 -117 104 -117 190c0 82 26.333 146.333 79 193s126.667 70 222 70
c96.667 0 171.334 -23.333 224.001 -70s79 -111 79 -193c0 -86 -39 -149.333 -117 -190c104 -35.333 156 -111.666 156 -228.999zM523.998 694c0 42.667 -13.332 75.834 -39.999 99.501s-60.334 35.5 -101.001 35.5c-39.333 0 -72.333 -11.833 -99 -35.5
s-40 -56.834 -40 -99.501c0 -39.333 13 -70.666 39 -93.999s59.333 -35 100 -35c42 0 76 11.667 102 35s39 54.666 39 93.999zM554.999 283c0 47.333 -15.667 84.666 -47 111.999s-73 41 -125 41c-50.667 0 -91.667 -13.667 -123 -41s-47 -64.666 -47 -111.999
c0 -52 15.667 -92.667 47 -122s72.333 -44 123 -44c52 0 93.667 14.667 125 44s47 70 47 122z" />
    <glyph glyph-name="nine" unicode="9" horiz-adv-x="766" 
d="M723 471c0 -131.333 -27.333 -241.333 -82 -330c-64 -104.667 -159 -157 -285 -157c-78.667 0 -146 24.5 -202 73.5s-86.333 113.833 -91 194.5h170c8.66699 -86 52.667 -129 132 -129c108.667 0 170 95.667 184 287c-44 -62 -109.667 -93 -197 -93
c-91.333 0 -165.333 29.5 -222 88.5s-85 136.833 -85 233.5c0 94 30 171.833 90 233.5s141.333 92.5 244 92.5c229.333 0 344 -164.667 344 -494zM537 641c0 52 -14.001 95.333 -42.001 130s-68.667 52 -122 52c-52 0 -91 -17.333 -117 -52s-39 -78 -39 -130
c0 -53.333 12.333 -97 37 -131c28.667 -38 68.334 -57 119.001 -57c53.333 0 94.333 19 123 57c27.333 34 41 77.667 41 131z" />
    <glyph glyph-name="colon" unicode=":" horiz-adv-x="381" 
d="M299 557c0 -30 -10.5 -55.5 -31.5 -76.5s-46.833 -31.5 -77.5 -31.5c-30 0 -55.5 10.5 -76.5 31.5s-31.5 46.5 -31.5 76.5s10.5 55.667 31.5 77s46.5 32 76.5 32c30.667 0 56.5 -10.667 77.5 -32s31.5 -47 31.5 -77zM299 98c0 -30 -10.5 -55.167 -31.5 -75.5
s-46.833 -30.5 -77.5 -30.5c-30 0 -55.5 10.167 -76.5 30.5s-31.5 45.5 -31.5 75.5s10.5 55.667 31.5 77s46.5 32 76.5 32c30.667 0 56.5 -10.667 77.5 -32s31.5 -47 31.5 -77z" />
    <glyph glyph-name="semicolon" unicode=";" horiz-adv-x="381" 
d="M299 557c0 -30 -10.5 -55.5 -31.5 -76.5s-46.833 -31.5 -77.5 -31.5c-30 0 -55.5 10.5 -76.5 31.5s-31.5 46.5 -31.5 76.5s10.5 55.667 31.5 77s46.5 32 76.5 32c30.667 0 56.5 -10.667 77.5 -32s31.5 -47 31.5 -77zM311 74c0 -87.333 -48.334 -165.333 -145.001 -234
l-74 31c60 39.333 94.333 79.666 103 120.999c-33.333 -1.33301 -61.166 7.83398 -83.499 27.501s-33.5 45.167 -33.5 76.5c0 30 10.5 56 31.5 78s47.833 33 80.5 33c80.667 0 121 -44.333 121 -133z" />
    <glyph glyph-name="less" unicode="&#x3c;" horiz-adv-x="827" 
d="M766 -8l-705 297v106l705 299v-151l-492 -201l492 -201v-149z" />
    <glyph glyph-name="equal" unicode="=" horiz-adv-x="766" 
d="M725 408h-684v133h684v-133zM725 141h-684v133h684v-133z" />
    <glyph glyph-name="greater" unicode="&#x3e;" horiz-adv-x="827" 
d="M766 289l-705 -297v149l492 201l-492 201v151l705 -299v-106z" />
    <glyph glyph-name="question" unicode="?" horiz-adv-x="768" 
d="M702 711c0 -84.667 -39.998 -160.001 -119.998 -226.001c-44 -35.333 -72.667 -62.666 -86 -81.999c-23.333 -32.667 -34.333 -74 -33 -124h-162c-2.66699 111.333 33.666 199.333 108.999 264c70.667 60 106 114 106 162c0 94 -41.667 141 -125 141
c-50.667 0 -88.834 -16.833 -114.501 -50.5s-38.5 -76.167 -38.5 -127.5h-172c0 94 30.333 170.667 91 230s141.334 89 242.001 89c87.333 0 159.666 -24.5 216.999 -73.5s86 -116.5 86 -202.5zM489.002 97.999c0 -31.333 -9.83301 -56.833 -29.5 -76.5
s-45.167 -29.5 -76.5 -29.5s-57 9.83301 -77 29.5s-30 45.167 -30 76.5s10.333 57 31 77s46 30 76 30c31.333 0 56.833 -10 76.5 -30s29.5 -45.667 29.5 -77z" />
    <glyph glyph-name="at" unicode="@" horiz-adv-x="1098" 
d="M1032 590c0 -122.667 -41.001 -224.333 -123.001 -305c-66.667 -67.333 -134.667 -101 -204 -101c-52 0 -80 26 -84 78c-50.667 -50.667 -100.667 -76 -150 -76c-57.333 0 -106.166 21.5 -146.499 64.5s-60.5 94.833 -60.5 155.5c0 90 28 169.667 84 239
c60 75.333 133.667 113 221 113c64.667 0 114.667 -28 150 -84l20 63h111l-100 -360c-8.66699 -31.333 -13 -51.333 -13 -60c0 -14.667 6.33301 -22 19 -22c42 0 80.5 27.667 115.5 83s52.5 120.333 52.5 195c0 94.667 -33.833 170.667 -101.5 228s-151.5 86 -251.5 86
c-113.333 0 -207.5 -37.5 -282.5 -112.5s-112.5 -167.833 -112.5 -278.5c0 -136.667 39.667 -242 119 -316c72 -68 167.667 -102 287 -102c122.667 0 223 44.333 301 133h112c-96.667 -154 -235.667 -231 -417 -231c-148 0 -268.333 43 -361 129
c-100.667 94 -151 223.667 -151 389c0 142 49 259 147 351s217.333 138 358 138c126 0 234.333 -37.5 325 -112.5s136 -169.833 136 -284.5zM673.999 532.001c0 28.667 -9.99902 54 -29.999 76s-43 33 -69 33c-50 0 -92.5 -24.167 -127.5 -72.5s-52.5 -98.5 -52.5 -150.5
c0 -76.667 33.667 -115 101 -115c47.333 0 89.666 26.667 126.999 80c34 48 51 97.667 51 149z" />
    <glyph glyph-name="A" unicode="A" horiz-adv-x="918" 
d="M932 0h-199l-90 252h-373l-90 -252h-192l374 965h193zM592 393l-135 379l-135 -379h270z" />
    <glyph glyph-name="B" unicode="B" horiz-adv-x="969" 
d="M918 272c0 -81.333 -29 -146 -87 -194c-62.667 -52 -154.667 -78 -276 -78h-453v965h478c196 0 294 -81.333 294 -244c0 -92.667 -40.667 -159.667 -122 -201c110.667 -31.333 166 -114 166 -248zM690 690c0 82 -45 123 -135 123h-266v-246h266c90 0 135 41 135 123z
M733 295c0 90 -51 135 -153 135h-291v-278h291c102 0 153 47.667 153 143z" />
    <glyph glyph-name="C" unicode="C" horiz-adv-x="993" 
d="M940 379c5.33301 -126 -33 -225.667 -115 -299c-77.333 -66.667 -178.333 -100 -303 -100c-142 0 -257.333 49 -346 147c-83.333 94 -125 212.667 -125 356c0 142 41.667 260.333 125 355c88.667 99.333 204 149 346 149c113.333 0 209 -30 287 -90
s121.667 -143.333 131 -250h-184c-31.333 126 -109.333 189 -234 189c-94 0 -167 -36.333 -219 -109c-43.333 -64 -65 -145.333 -65 -244c0 -99.333 21.667 -180.333 65 -243c50.667 -74 123.667 -111 219 -111c72.667 0 130.5 22.167 173.5 66.5s65.833 105.5 68.5 183.5
h176z" />
    <glyph glyph-name="D" unicode="D" horiz-adv-x="993" 
d="M944 483c0 -142 -34 -256 -102 -342c-75.333 -94 -185.333 -141 -330 -141h-410v965h410c144.667 0 254.667 -47.333 330 -142c68 -84.667 102 -198 102 -340zM760 483c0 105.333 -20.001 183.333 -60.001 234c-50 64 -134.667 96 -254 96h-157v-661h157
c120.667 0 205.334 32 254.001 96c40 52 60 130.333 60 235z" />
    <glyph glyph-name="E" unicode="E" horiz-adv-x="868" 
d="M823 0h-721v965h711v-160h-524v-232h485v-151h-485v-262h534v-160z" />
    <glyph glyph-name="F" unicode="F" horiz-adv-x="817" 
d="M786 805h-497v-232h436v-151h-436v-422h-187v965h684v-160z" />
    <glyph glyph-name="G" unicode="G" horiz-adv-x="1042" 
d="M961 0h-120.999l-25 100c-78 -80 -173.667 -120 -287 -120c-142 0 -257.333 49 -346 147c-83.333 94 -125 212.667 -125 356c0 142 41.667 260.333 125 355c88.667 99.333 204 149 346 149c113.333 0 207.666 -28 282.999 -84c80.667 -60 127 -145.333 139 -256h-180
c-8 60 -34.833 106.5 -80.5 139.5s-99.5 49.5 -161.5 49.5c-94 0 -167 -36.333 -219 -109c-43.333 -64 -65 -145.333 -65 -244c0 -99.333 21.667 -180.333 65 -243c50.667 -74 123.667 -111 219 -111c168 -1.33301 255.667 80 263 244h-256v143h426v-516z" />
    <glyph glyph-name="H" unicode="H" horiz-adv-x="993" 
d="M893 0h-186v428h-422v-428h-187v965h187v-377h422v377h186v-965z" />
    <glyph glyph-name="I" unicode="I" horiz-adv-x="391" 
d="M289 0h-187v965h187v-965zM289 0v965h-187v-965h187zM289 0h-187v965h187v-965z" />
    <glyph glyph-name="J" unicode="J" horiz-adv-x="741" 
d="M639 313c0 -102 -18.999 -179 -56.999 -231c-50.667 -68 -140.334 -102 -269.001 -102c-196.667 0 -295 103 -295 309v59h185v-57c0 -108 41.667 -162 125 -162c48.667 0 82.667 15 102 45c16.667 26 25 69 25 129v662h184v-652z" />
    <glyph glyph-name="K" unicode="K" horiz-adv-x="942" 
d="M961 0h-232l-311 451l-129 -127v-324h-187v965h187v-418l418 418h231l-395 -387z" />
    <glyph glyph-name="L" unicode="L" horiz-adv-x="793" 
d="M778 0h-676v965h187v-805h489v-160z" />
    <glyph glyph-name="M" unicode="M" horiz-adv-x="1219" 
d="M1118 0h-178v700l-256 -700h-152l-256 705v-705h-176v965h252l260 -729l256 729h250v-965z" />
    <glyph glyph-name="N" unicode="N" horiz-adv-x="993" 
d="M895 0l-190 2l-433 684v-686h-176v965l189 -2l432 -687v689h178v-965z" />
    <glyph glyph-name="O" unicode="O" horiz-adv-x="1044" 
d="M993 483c0 -143.333 -41.667 -262 -125 -356c-88.667 -98 -204 -147 -346 -147s-257.333 49 -346 147c-83.333 94 -125 212.667 -125 356c0 142 41.667 260.333 125 355c88.667 99.333 204 149 346 149s257.333 -49.667 346 -149c83.333 -94.667 125 -213 125 -355z
M807 483c0 98.667 -22 180 -66 244c-51.333 72.667 -124.333 109 -219 109c-94 0 -167 -36.333 -219 -109c-43.333 -64 -65 -145.333 -65 -244c0 -99.333 21.667 -180.333 65 -243c50.667 -74 123.667 -111 219 -111c96 0 169 37 219 111c44 62.667 66 143.667 66 243z" />
    <glyph glyph-name="P" unicode="P" horiz-adv-x="918" 
d="M872 664c0 -199.333 -111.667 -299 -335 -299h-248v-365h-187v965h435c223.333 0 335 -100.333 335 -301zM688 664c0 99.333 -52.667 149 -158 149h-241v-297h237c42.667 0 79 10.333 109 31c35.333 26 53 65 53 117z" />
    <glyph glyph-name="Q" unicode="Q" horiz-adv-x="1044" 
d="M993 485c0 -155.333 -44.333 -276.667 -133 -364l127 -105l-96 -102l-143 121c-68.667 -35.333 -144 -53 -226 -53c-142 0 -257.333 49 -346 147c-83.333 94 -125 212.667 -125 356c0 140.667 41.667 258.334 125 353.001c88.667 99.333 204 149 346 149
s257.333 -49.667 346 -149c83.333 -94.667 125 -212.334 125 -353.001zM807 484.999c0 97.333 -22 178 -66 242c-51.333 72.667 -124.333 109 -219 109c-94 0 -167 -36.333 -219 -109c-43.333 -64 -65 -144.667 -65 -242c0 -99.333 21.667 -180.333 65 -243
c50.667 -74 123.667 -111 219 -111c34 0 64.667 5.33301 92 16l-94 82l94 103l115 -101c52 63.333 78 148 78 254z" />
    <glyph glyph-name="R" unicode="R" horiz-adv-x="969" 
d="M950 0h-209c-18.667 31.333 -28 81.333 -28 150c0 87.333 -12.667 149.333 -38 186s-74.333 55 -147 55h-239v-391h-187v965h469c218.667 0 328 -88.333 328 -265c0 -120 -46.333 -198.333 -139 -235c82 -24.667 123 -93 123 -205c0 -128 22.333 -214.667 67 -260z
M713 678c0 90 -52.667 135 -158 135h-266v-278h268c104 0 156 47.667 156 143z" />
    <glyph glyph-name="S" unicode="S" horiz-adv-x="893" 
d="M848 285c0 -102.667 -40.9971 -181.333 -122.997 -236c-71.333 -46 -161.333 -69 -270 -69c-120.667 0 -216.334 27 -287.001 81c-80.667 62 -121.667 152.333 -123 271h184c0 -135.333 79.333 -203 238 -203c130 0 195 45 195 135c0 54.667 -24.667 91 -74 109
c-16.667 6.66699 -112.334 32.667 -287.001 78c-146 38 -219 121 -219 249c0 92 37.667 164.667 113 218c68 46 150.333 69 247 69c108 0 197 -26.667 267 -80c74.667 -58.667 112 -137.667 112 -237h-186c-6.66699 110.667 -73 166 -199 166
c-113.333 0 -170 -38.333 -170 -115c0 -57.333 37.167 -95.5 111.5 -114.5l275.5 -71.5c63.333 -18 112.666 -52.333 147.999 -103c31.333 -44.667 47 -93.667 47 -147z" />
    <glyph glyph-name="T" unicode="T" horiz-adv-x="817" 
d="M809 805h-307v-805h-187v805h-305v160h799v-160z" />
    <glyph glyph-name="U" unicode="U" horiz-adv-x="993" 
d="M901 350c0 -121.333 -36.5 -213.333 -109.5 -276s-171.5 -94 -295.5 -94c-124.667 0 -223.167 31.333 -295.5 94s-108.5 154.667 -108.5 276v615h184v-559c0 -84.667 10.333 -145 31 -181c31.333 -58.667 94.333 -88 189 -88c94 0 157.333 29.333 190 88
c19.333 36 29 96.333 29 181v559h186v-615z" />
    <glyph glyph-name="V" unicode="V" horiz-adv-x="842" 
d="M854 965l-336 -965h-201l-325 965h190l240 -736l242 736h190z" />
    <glyph glyph-name="W" unicode="W" horiz-adv-x="1292" 
d="M1286 965l-270 -965h-185l-188 707l-192 -707h-187l-258 965h189l170 -705l188 705h186l183 -705l176 705h188z" />
    <glyph glyph-name="X" unicode="X" horiz-adv-x="893" 
d="M905 0h-227l-236 356l-245 -356h-207l348 500l-326 465h219l215 -330l226 328h207l-324 -463zM905 0l-350 500l324 463h-207l-226 -328l-215 330h-219l326 -465l-348 -500h207l245 356l236 -356h227zM905 0h-227l-236 356l-245 -356h-207l348 500l-326 465h219l215 -330
l226 328h207l-324 -463z" />
    <glyph glyph-name="Y" unicode="Y" horiz-adv-x="893" 
d="M907 963l-368 -584v-379h-185v379l-366 586h211l252 -420l247 418h209z" />
    <glyph glyph-name="Z" unicode="Z" horiz-adv-x="868" 
d="M838 0h-807v147l553 658h-510v160h751v-136l-553 -669h566v-160z" />
    <glyph glyph-name="bracketleft" unicode="[" horiz-adv-x="416" 
d="M416 -256h-318v1243h318v-135h-156v-973h156v-135z" />
    <glyph glyph-name="backslash" unicode="\" horiz-adv-x="492" 
d="M526 -20h-166l-393 1007h164z" />
    <glyph glyph-name="bracketright" unicode="]" horiz-adv-x="416" 
d="M319 -256h-317v135h156v973h-156v135h317v-1243z" />
    <glyph glyph-name="asciicircum" unicode="^" horiz-adv-x="827" 
d="M721 453h-160l-147 309l-148 -309h-160l252 493h111z" />
    <glyph glyph-name="underscore" unicode="_" horiz-adv-x="766" 
d="M766 -209h-766v109h766v-109z" />
    <glyph glyph-name="grave" unicode="`" horiz-adv-x="342" 
d="M287 795h-129l-209 192h203z" />
    <glyph glyph-name="a" unicode="a" horiz-adv-x="768" 
d="M758 0c-37.333 -10.667 -73.002 -16.001 -107.002 -16.001c-66.667 0 -107.667 23.667 -123 71c-61.333 -47.333 -140.333 -71 -237 -71c-68.667 0 -126 16.333 -172 49c-50.667 38 -76 89.667 -76 155c0 79.333 29.333 136 88 170c35.333 22 97.333 39.333 186 52
c48 6.66699 96 12.667 144 18c40.667 10.667 61 34 61 70c0 56 -45.667 84 -137 84s-139.666 -35.667 -144.999 -107h-170c8 161.333 116.333 242 325 242c78 0 143.667 -15.667 197 -47c60 -37.333 90 -90.666 90 -159.999v-350c0 -28.667 9.66699 -43 29 -43
c14.667 0 30.334 0.666992 47.001 2v-119zM511.998 237.999v98c-19.333 -9.33301 -47.333 -17 -84 -23l-94 -12c-80.667 -13.333 -121 -48 -121 -104c0 -53.333 45 -80 135 -80c40 0 75.667 8.66699 107 26c38 22 57 53.667 57 95z" />
    <glyph glyph-name="b" unicode="b" horiz-adv-x="842" 
d="M793 348c0 -102 -25.334 -186.667 -76.001 -254c-56 -73.333 -134 -110 -234 -110c-113.333 0 -191.666 30 -234.999 90v-74h-162v965h170v-338c48 62.667 115.667 94 203 94c108 0 192 -36.333 252 -109c54.667 -68 82 -156 82 -264zM622.999 350
c0 66 -14.999 120.667 -44.999 164c-34.667 48 -81.334 72 -140.001 72c-125.333 0 -188 -78.667 -188 -236c0 -68 16.667 -123.833 50 -167.5s79.333 -65.5 138 -65.5c62.667 0 110.667 24.333 144 73c27.333 42.667 41 96 41 160z" />
    <glyph glyph-name="c" unicode="c" horiz-adv-x="768" 
d="M725 272c-31.333 -192 -141.333 -288.001 -330 -288.001c-109.333 0 -195.333 34 -258 102c-60 64 -90 149.333 -90 256c0 110.667 29.333 199.334 88 266.001c62.667 72.667 150.667 109 264 109c88.667 0 161.667 -21.333 219 -64
c63.333 -44.667 98.333 -110.667 105 -198h-170c-12 84.667 -62.667 127 -152 127c-122.667 0 -184 -80 -184 -240c0 -62.667 13.667 -114 41 -154c31.333 -47.333 77 -71 137 -71c90 0 142.667 51.667 158 155h172z" />
    <glyph glyph-name="d" unicode="d" horiz-adv-x="842" 
d="M756 0l-162.001 -0.000976562v76c-41.333 -61.333 -111.666 -92 -210.999 -92c-109.333 0 -194 35.333 -254 106c-54.667 66.667 -82 155.334 -82 266.001c0 119.333 32 212.333 96 279c57.333 57.333 129 86 215 86c105.333 0 181.333 -32.667 228 -98v342h170v-965z
M589.999 351.999c0 72.667 -16.332 129.833 -48.999 171.5s-77.667 62.5 -135 62.5c-64.667 0 -113.334 -25.333 -146.001 -76c-28.667 -44 -43 -99.333 -43 -166c0 -62.667 15 -114.667 45 -156c32.667 -47.333 79.667 -71 141 -71c62 0 110 25.333 144 76
c28.667 42 43 95 43 159z" />
    <glyph glyph-name="e" unicode="e" horiz-adv-x="768" 
d="M731 303l-513.999 -0.000976562c1.33301 -53.333 17 -96.333 47 -129c32.667 -38 77 -57 133 -57c83.333 0 138 37.333 164 112h164c-19.333 -78.667 -58.333 -139.167 -117 -181.5s-129 -63.5 -211 -63.5c-109.333 0 -195 33.333 -257 100s-93 154.667 -93 264
c0 102.667 31.833 189.834 95.5 261.501s147.167 107.5 250.5 107.5c101.333 0 183.666 -35.167 246.999 -105.5s95 -155.5 95 -255.5c0 -17.333 -1.33301 -35 -4 -53zM561.001 417.999c-5.33301 46 -23 84.833 -53 116.5s-68.333 47.5 -115 47.5
c-49.333 0 -90 -15.5 -122 -46.5s-50 -70.167 -54 -117.5h344z" />
    <glyph glyph-name="f" unicode="f" horiz-adv-x="442" 
d="M444 817c-24 8 -50.333 12 -79 12c-45.333 0 -68 -21 -68 -63v-64h131v-129h-131v-573h-170v573h-115v129h115v52c0 140.667 67 211 201 211c52 0 90.667 -3.66699 116 -11v-137z" />
    <glyph glyph-name="g" unicode="g" horiz-adv-x="817" 
d="M743 39c0 -208.667 -117.332 -313 -351.999 -313c-83.333 0 -153 16.333 -209 49c-66.667 39.333 -103.334 99.333 -110.001 180h168c13.333 -66.667 67 -100 161 -100c118 0 177 55 177 165v91c-49.333 -75.333 -119 -113 -209 -113c-108 0 -190 35.333 -246 106
c-50.667 66 -76 153.667 -76 263c0 96.667 29.667 179.167 89 247.5s138.333 102.5 237 102.5c91.333 0 158 -30.667 200 -92v73h170v-659zM573.001 362c0 63.333 -14.999 115.834 -44.999 157.501s-75 62.5 -135 62.5s-105.667 -24.667 -137 -74
c-26 -42.667 -39 -95.334 -39 -158.001c0 -60 13.667 -109.667 41 -149c31.333 -46.667 76.333 -70 135 -70c61.333 0 107.666 24.667 138.999 74c27.333 40.667 41 93 41 157z" />
    <glyph glyph-name="h" unicode="h" horiz-adv-x="793" 
d="M711 0h-170.001v438c0 98.667 -43 148 -129 148c-48 0 -86.667 -16.5 -116 -49.5s-44 -73.833 -44 -122.5v-414h-170v965h170v-340c46.667 64 114.334 96 203.001 96c170.667 0 256 -80.667 256 -242v-479z" />
    <glyph glyph-name="i" unicode="i" horiz-adv-x="342" 
d="M256 805h-170v160h170v-160zM256 0h-170v702h170v-702z" />
    <glyph glyph-name="j" unicode="j" horiz-adv-x="342" 
d="M256 805h-170v160h170v-160zM256 -51c0 -148.667 -69.668 -223 -209.001 -223c-13.333 0 -38.666 1.33301 -75.999 4v139c24.667 -5.33301 44.667 -8 60 -8c23.333 0 39 8 47 24c5.33301 12.667 8 36 8 70v747h170v-753z" />
    <glyph glyph-name="k" unicode="k" horiz-adv-x="741" 
d="M758 0h-209l-209 332l-84 -80v-252h-170v965h170v-527l266 264h213l-278 -260z" />
    <glyph glyph-name="l" unicode="l" horiz-adv-x="342" 
d="M256 0h-170v965h170v-965z" />
    <glyph glyph-name="m" unicode="m" horiz-adv-x="1192" 
d="M1112 0h-171.999v406c0 61.333 -5.33301 103.333 -16 126c-16.667 33.333 -51 50 -103 50c-92.667 0 -139 -58 -139 -174v-408h-172v446c0 90.667 -38.333 136 -115 136c-39.333 0 -73 -15 -101 -45s-42 -71 -42 -123v-414h-170v698h162v-82
c48.667 67.333 119 101 211 101c96.667 0 162 -35.667 196 -107c57.333 71.333 129.666 107 216.999 107c162.667 0 244 -78.667 244 -236v-481z" />
    <glyph glyph-name="n" unicode="n" horiz-adv-x="793" 
d="M711 0h-170v436c0 97.333 -43 146 -129 146c-48 0 -86.667 -16.5 -116 -49.5s-44 -73.833 -44 -122.5v-410h-170v698h162l-2 -90c47.333 72.667 118.333 109 213 109c170.667 0 256 -80 256 -240v-477z" />
    <glyph glyph-name="o" unicode="o" horiz-adv-x="817" 
d="M770 350c0 -109.333 -31.999 -197.666 -95.999 -264.999s-152 -101 -264 -101s-200.167 33.667 -264.5 101s-96.5 155.666 -96.5 264.999s31.833 197.833 95.5 265.5s152.167 101.5 265.5 101.5s201.666 -33.833 264.999 -101.5s95 -156.167 95 -265.5zM600.001 350
c0 62.667 -15 116 -45 160c-34 48 -82.333 72 -145 72c-63.333 0 -111 -23 -143 -69s-48 -100.333 -48 -163c0 -64 15 -117.333 45 -160c34 -48.667 82.667 -73 146 -73c62.667 0 111 24.333 145 73c30 42.667 45 96 45 160z" />
    <glyph glyph-name="p" unicode="p" horiz-adv-x="842" 
d="M793 344c0 -102.667 -25.332 -187.333 -75.999 -254c-56 -73.333 -134 -110 -234 -110c-102 0 -177.667 30.667 -227 92v-328h-170v954h162v-73c43.333 61.333 113.666 92 210.999 92c108 0 192 -36.333 252 -109c54.667 -68 82 -156 82 -264zM623.001 346.001
c0 65.333 -14.999 120 -44.999 164c-34.667 48 -81.334 72 -140.001 72c-125.333 0 -188 -78.667 -188 -236c0 -68 16.667 -123.833 50 -167.5s79.333 -65.5 138 -65.5c62.667 0 110.667 24.333 144 73c27.333 42.667 41 96 41 160z" />
    <glyph glyph-name="q" unicode="q" horiz-adv-x="842" 
d="M756 -256l-169.999 -0.000976562v328c-49.333 -61.333 -126 -92 -230 -92c-99.333 0 -177 36.667 -233 110c-50.667 66.667 -76 151.334 -76 254.001c0 108 27.333 196 82 264c60 72.667 144.667 109 254 109c95.333 0 165.666 -31.333 210.999 -94v75h162v-954z
M590.001 345.999c0 157.333 -62.333 236 -187 236c-58.667 0 -104.334 -23.333 -137.001 -70s-49 -102 -49 -166s14.333 -117.333 43 -160c32.667 -48.667 80.334 -73 143.001 -73c124.667 0 187 77.667 187 233z" />
    <glyph glyph-name="r" unicode="r" horiz-adv-x="492" 
d="M508 553c-22 4 -47.334 6.00098 -76.001 6.00098c-52 0 -94.333 -19 -127 -57c-35.333 -42.667 -53 -99.334 -53 -170.001v-332h-170v698h160v-102c16 32.667 42.833 61 80.5 85s76.834 36 117.501 36c15.333 0 38 -1.33301 68 -4v-160z" />
    <glyph glyph-name="s" unicode="s" horiz-adv-x="719" 
d="M682 211c0 -78 -34.667 -137.331 -104 -177.998c-59.333 -32.667 -132 -49 -218 -49c-94 0 -169 19.667 -225 59c-60 45.333 -90.667 109.666 -92 192.999h170c6.66699 -79.333 57.334 -119 152.001 -119c99.333 0 147.666 27.333 144.999 82
c-1.33301 32.667 -25.333 56.334 -72 71.001c-5.33301 2.66699 -55 13.667 -149 33c-154.667 31.333 -232 101.666 -232 210.999c0 69.333 34.333 122.666 103 159.999c53.333 28.667 119.333 43 198 43c183.333 0 283 -75 299 -225h-174c-12 60 -54.333 90 -127 90
c-84.667 0 -127 -20.667 -127 -62c0 -31.333 23.333 -54.333 70 -69c6.66699 -3.33301 56.667 -14.333 150 -33c155.333 -32.667 233 -101.667 233 -207z" />
    <glyph glyph-name="t" unicode="t" horiz-adv-x="467" 
d="M436 2c-54.667 -4 -90.668 -6 -108.001 -6c-79.333 0 -132.666 14 -159.999 42s-41 74 -41 138v397h-117v129h117v207h170v-207h139v-129h-139v-358c0 -31.333 3.33301 -52.333 10 -63c10 -15.333 29.333 -23 58 -23c27.333 0 51 2.66699 71 8v-135z" />
    <glyph glyph-name="u" unicode="u" horiz-adv-x="793" 
d="M711 0h-168.001v76c-45.333 -61.333 -109.666 -92 -192.999 -92c-178.667 0 -268 91.333 -268 274v440h170v-426c0 -103.333 41.667 -155 125 -155c109.333 0 164 59.333 164 178v403h170v-698z" />
    <glyph glyph-name="v" unicode="v" horiz-adv-x="719" 
d="M711 698l-258 -698h-185l-260 698h187l172 -512l165 512h179z" />
    <glyph glyph-name="w" unicode="w" horiz-adv-x="1067" 
d="M1055 698l-226 -698h-170l-124 485l-125 -485h-174l-222 698h181l131 -489l127 489h168l122 -489l136 489h176z" />
    <glyph glyph-name="x" unicode="x" horiz-adv-x="741" 
d="M745 0l-206 4l-172 244l-170 -244l-197 -4l268 369l-248 329l203 -4l146 -202l147 202l197 2l-244 -321z" />
    <glyph glyph-name="y" unicode="y" horiz-adv-x="719" 
d="M717 698l-276.998 -731c-31.333 -83.333 -59.333 -140 -84 -170c-40.667 -47.333 -98 -71 -172 -71c-38 0 -76 2.66699 -114 8v145c43.333 -8 70.666 -12 81.999 -12c47.333 0 80.666 30 99.999 90l16 49l-268 692h186l179 -499l172 499h180z" />
    <glyph glyph-name="z" unicode="z" horiz-adv-x="692" 
d="M662 0h-631v119l375 446h-349v133h584v-116l-389 -449h410v-133z" />
    <glyph glyph-name="braceleft" unicode="{" horiz-adv-x="416" 
d="M434 -256h-131c-38 0 -76.333 15 -115 45c-44.667 38 -67 86.333 -67 145v263c0 65.333 -41.667 98 -125 98v139c83.333 0 125 29.333 125 88v275c0 58.667 22.333 107 67 145c38.667 30 77 45 115 45h131v-135h-82c-44.667 0 -67 -28.667 -67 -86v-260
c0 -70 -35.667 -116.333 -107 -139c71.333 -19.333 107 -70 107 -152v-248c0 -58.667 22.333 -88 67 -88h82v-135z" />
    <glyph glyph-name="bar" unicode="|" horiz-adv-x="317" 
d="M236 -20h-154v1007h154v-1007z" />
    <glyph glyph-name="braceright" unicode="}" horiz-adv-x="416" 
d="M422 295c-84.667 0 -127 -29.334 -127 -88.001v-273c0 -58.667 -22.667 -107 -68 -145c-38 -30 -76 -45 -114 -45h-129v135h82c44.667 0 67 29.333 67 88v256c0 68.667 35 116 105 142c-70 18.667 -105 68.334 -105 149.001v252c0 57.333 -22.333 86 -67 86h-82v135h129
c38 0 76 -15 114 -45c45.333 -38 68 -86.333 68 -145v-265c0 -65.333 42.333 -98 127 -98v-139z" />
    <glyph glyph-name="asciitilde" unicode="~" horiz-adv-x="827" 
d="M735 346c-57.333 -72 -116.669 -108 -178.002 -108c-34 0 -81.667 13.167 -143 39.5s-111.333 39.5 -150 39.5c-39.333 0 -77.333 -30 -114 -90l-56 115c41.333 71.333 100 107 176 107c38.667 0 91.334 -13.333 158.001 -40s110.334 -40 131.001 -40
c30 0 71 29.333 123 88z" />
    <glyph glyph-name="currency" unicode="&#xa4;" horiz-adv-x="840" 
d="M422 729c32.667 0 62.332 -6.16895 88.999 -18.502s49.834 -28.666 69.501 -48.999s35 -44.5 46 -72.5s16.5 -57 16.5 -87c0 -67.333 -21 -122 -63 -164c-44 -45.333 -96.667 -68 -158 -68c-65.333 0 -119.333 22.667 -162 68c-42 46.667 -63 101.334 -63 164.001
c0 58.667 21.667 112 65 160c42.667 44.667 96 67 160 67zM7.99805 163.998l76.001 -76l145 148c54.667 -41.333 119 -62 193 -62c35.333 0 70.5 6.16699 105.5 18.5s62.5 26.833 82.5 43.5l150 -148l71 76l-145 145c39.333 52 59 116.333 59 193
c0 73.333 -19.667 136 -59 188l145 150l-71 71l-150 -145c-21.333 18 -48.833 32.333 -82.5 43s-68.834 16 -105.501 16c-76.667 0 -141 -19.667 -193 -59l-145 145l-76 -71l148 -150c-41.333 -49.333 -62 -112 -62 -188c0 -74 20.667 -138.333 62 -193z" />
    <glyph glyph-name="FL00A9h" unicode="&#xa9;" horiz-adv-x="1135" 
d="M1073 483c0 -140.667 -49.167 -259.667 -147.5 -357s-217.833 -146 -358.5 -146s-260.167 48.667 -358.5 146s-147.5 216.333 -147.5 357c0 139.333 49.167 258.166 147.5 356.499s217.833 147.5 358.5 147.5s260.167 -49.167 358.5 -147.5
s147.5 -217.166 147.5 -356.499zM985 483c0 119.333 -39.5 219.833 -118.5 301.5s-178.167 122.5 -297.5 122.5c-120 0 -219.833 -40.5 -299.5 -121.5s-119.5 -181.833 -119.5 -302.5c0 -118.667 40.167 -219 120.5 -301s179.833 -123 298.5 -123
c117.333 0 216 41.333 296 124s120 182.667 120 300zM831 414c3.33301 -76.667 -19.3311 -136.499 -67.998 -179.499s-111.334 -64.5 -188.001 -64.5c-86 0 -156 30.667 -210 92c-52 57.333 -78 129.666 -78 216.999c0 86 26.167 158.667 78.5 218s122.166 89 209.499 89
c68.667 0 127.167 -18.333 175.5 -55s75.166 -87 80.499 -151h-112c-20.667 76 -68.667 114 -144 114c-58.667 0 -103 -22.333 -133 -67c-27.333 -38.667 -41 -88 -41 -148c0 -61.333 13.667 -111 41 -149c30 -45.333 74.333 -68 133 -68
c94.667 0 143.334 50.667 146.001 152h110z" />
    <glyph glyph-name="guillemotleft" unicode="&#xab;" horiz-adv-x="653" 
d="M573 125l-227 170v145l227 170v-149l-127 -94l127 -93v-149zM295 125l-227 170v145l227 170v-149l-123 -94l123 -93v-149z" />
    <glyph glyph-name="logicalnot" unicode="&#xac;" horiz-adv-x="766" 
d="M726 119v268h-686v-90h604v-178h82z" />
    <glyph glyph-name="minus" unicode="&#xad;" horiz-adv-x="766" 
d="M725 274h-684v134h684v-134z" />
    <glyph glyph-name="registered" unicode="&#xae;" horiz-adv-x="1135" 
d="M1073 483c0 -140.667 -49.167 -259.667 -147.5 -357s-217.833 -146 -358.5 -146s-260.167 48.667 -358.5 146s-147.5 216.333 -147.5 357c0 139.333 49.167 258.166 147.5 356.499s217.833 147.5 358.5 147.5s260.167 -49.167 358.5 -147.5
s147.5 -217.166 147.5 -356.499zM987 483c0 119.333 -39.833 219.835 -119.5 301.502s-178.5 122.5 -296.5 122.5c-120 0 -220.167 -40.833 -300.5 -122.5s-120.5 -182.167 -120.5 -301.5c0 -118.667 40.5 -219.334 121.5 -302.001s180.833 -124 299.5 -124
c118 0 216.833 41.667 296.5 125s119.5 183.666 119.5 300.999zM838 199.002l-121.001 0.00195312c-12.667 17.333 -19 47.333 -19 90c0 47.333 -5.33301 80 -16 98c-15.333 27.333 -44.666 41 -87.999 41h-139v-229h-109v561h270c127.333 0 191 -51.333 191 -154
c0 -66.667 -26 -112.334 -78 -137.001c48 -16.667 72 -56.334 72 -119.001c0 -74.667 12.333 -125 37 -151zM697.999 594.004c0 52 -29.333 78 -88 78h-155v-162h155c58.667 0 88 28 88 84z" />
    <glyph glyph-name="degree" unicode="&#xb0;" horiz-adv-x="541" 
d="M266 915c-28 0 -54.167 -5.49902 -78.5 -16.499s-45.5 -25.667 -63.5 -44s-32.167 -39.833 -42.5 -64.5s-15.5 -50.334 -15.5 -77.001c0 -28.667 5.33301 -55.334 16 -80.001s25.167 -46.167 43.5 -64.5s39.5 -32.666 63.5 -42.999s49.667 -15.5 77 -15.5
c28.667 0 55.5 5.33301 80.5 16s46.667 25.167 65 43.5s32.833 39.833 43.5 64.5s16 51 16 79s-5.33301 54.333 -16 79s-25.167 46 -43.5 64s-40 32.333 -65 43s-51.833 16 -80.5 16zM266 858.001c20.667 0 39.999 -3.83398 57.999 -11.501s33.833 -18 47.5 -31
s24.5 -28.333 32.5 -46s12 -36.5 12 -56.5c0 -39.333 -15 -74.333 -45 -105c-30 -28.667 -65 -43 -105 -43c-20 0 -38.833 4 -56.5 12s-33 18.667 -46 32s-23.333 29 -31 47s-11.5 37 -11.5 57c0 20.667 3.66699 39.834 11 57.501s17.5 33 30.5 46s28.333 23.167 46 30.5
s36.834 11 57.501 11z" />
    <glyph glyph-name="paragraph" unicode="&#xb6;" horiz-adv-x="727" 
d="M629 1112v-1356h-62v1356h-145v-1356h-55v805c-112 0 -199.667 20.667 -263 62c-69.333 48.667 -104 127 -104 235c-0 101.333 31.333 177.666 94 228.999c60 44 142.667 66 248 66h389v-41h-102z" />
    <glyph glyph-name="periodcentered" unicode="&#xb7;" horiz-adv-x="338" 
d="M170 520c-22 0 -39.665 -6.66699 -52.998 -20c-14 -16 -21 -33 -21 -51c0 -22 7 -40 21 -54c7.33301 -7.33301 15.5 -12.5 24.5 -15.5s18.5 -4.5 28.5 -4.5c19.333 0 36.166 7.16699 50.499 21.5s21.5 31.833 21.5 52.5c0 19.333 -6.83301 36 -20.5 50
s-30.834 21 -51.501 21z" />
    <glyph glyph-name="periodcentered" unicode="&#x2219;" horiz-adv-x="338" 
d="M170 520c-22 0 -39.665 -6.66699 -52.998 -20c-14 -16 -21 -33 -21 -51c0 -22 7 -40 21 -54c7.33301 -7.33301 15.5 -12.5 24.5 -15.5s18.5 -4.5 28.5 -4.5c19.333 0 36.166 7.16699 50.499 21.5s21.5 31.833 21.5 52.5c0 19.333 -6.83301 36 -20.5 50
s-30.834 21 -51.501 21z" />
    <glyph glyph-name="guillemotright" unicode="&#xbb;" horiz-adv-x="653" 
d="M584 297l-226 -170v147l125 95l-125 94v145l226 -168v-143zM305 297l-223 -172v149l121 95l-121 94v147l223 -170v-143z" />
    <glyph glyph-name="multiply" unicode="&#xd7;" horiz-adv-x="766" 
d="M715 102l-94 -94l-240 240l-238 -238l-94 94l238 238l-238 238l94 94l238 -238l240 238l94 -94l-240 -238z" />
    <glyph glyph-name="divide" unicode="&#xf7;" horiz-adv-x="766" 
d="M475 600c0 -24.667 -8.83301 -45.834 -26.5 -63.501s-38.834 -26.5 -63.501 -26.5s-45.834 8.83301 -63.501 26.5s-26.5 38.834 -26.5 63.501s8.83301 45.834 26.5 63.501s38.834 26.5 63.501 26.5s45.834 -8.83301 63.501 -26.5s26.5 -38.834 26.5 -63.501zM725 274
h-684v134h684v-134zM473 82c0 -24.667 -8.83301 -45.5 -26.5 -62.5s-38.834 -25.5 -63.501 -25.5s-45.834 8.5 -63.501 25.5s-26.5 37.833 -26.5 62.5s8.83301 45.834 26.5 63.501s38.834 26.5 63.501 26.5s45.834 -8.83301 63.501 -26.5s26.5 -38.834 26.5 -63.501z" />
    <glyph glyph-name="_e00_" unicode="&#xe00;" horiz-adv-x="205" 
 />
    <glyph glyph-name="afii59681" unicode="&#xe01;" horiz-adv-x="840" 
d="M778 0l-176.001 -0.000976562v547c0 95.333 -63.333 143 -190 143c-93.333 0 -154.333 -24.667 -183 -74c41.333 -25.333 62 -49.666 62 -72.999c0 -14 -8.83301 -31.833 -26.5 -53.5s-26.5 -41.5 -26.5 -59.5v-430h-177v430c0 16.667 10.667 34.5 32 53.5
s32 33.833 32 44.5c0 12.667 -28.667 34 -86 64c12 76.667 54.333 136.667 127 180c66.667 41.333 149.334 62 248.001 62c104.667 0 190 -22 256 -66c72 -48 108 -117.667 108 -209v-559z" />
    <glyph glyph-name="afii59682_" unicode="&#xe02;" horiz-adv-x="758" 
d="M696 242c0 -90.667 -34 -157.668 -102 -201.001c-56 -35.333 -127.667 -53 -215 -53c-86 0 -157 17.667 -213 53c-70 43.333 -105 110.333 -105 201v268c0 38 25.333 70.333 76 97s76 46.334 76 59.001c0 16 -15 24 -45 24h-119v129h135c136.667 0 205 -48.333 205 -145
c0 -41.333 -25.167 -76 -75.5 -104s-75.5 -52.667 -75.5 -74v-252c0 -76.667 47 -115 141 -115s141 38.333 141 115v575h176v-577z" />
    <glyph glyph-name="afii59683_" unicode="&#xe03;" horiz-adv-x="768" 
d="M707 238c0 -88 -34.333 -154.332 -103 -198.999c-57.333 -34 -129 -51 -215 -51s-157 17 -213 51c-69.333 44.667 -104 111 -104 199v245c0 40 26.833 75.333 80.5 106s80.5 56.334 80.5 77.001c0 18.667 -4.66699 33 -14 43l-92 -78l-127 110l102 88l64 -55l63 51
c110.667 8.66699 166 -39 166 -143c0 -50.667 -24.5 -94.334 -73.5 -131.001s-73.5 -65.334 -73.5 -86.001v-223c0 -76.667 47 -115 141 -115s141 38.333 141 115v577h177v-581z" />
    <glyph glyph-name="afii59684_" unicode="&#xe04;" horiz-adv-x="860" 
d="M799 0l-176 -0.000976562v557c0 88.667 -64.333 133 -193 133c-128 0 -192 -44.333 -192 -133v-72h249v-151h-249v-334h-177v559c0 88.667 39.667 158.334 119 209.001c68.667 44 152 66 250 66c100 0 184 -22 252 -66c78 -49.333 117 -119 117 -209v-559z" />
    <glyph glyph-name="afii59685_" unicode="&#xe05;" horiz-adv-x="860" 
d="M799 0l-175.999 -0.000976562v594c0 46.667 -21.333 75.334 -64 86.001l-125 -86l-131 86c-43.333 -12 -65 -40.667 -65 -86v-109h249v-151h-249v-334h-177v582c0 68 22.667 124.833 68 170.5s109.666 72.834 192.999 81.501l108 -76l109 76
c83.333 -8.66699 147.5 -35.834 192.5 -81.501s67.5 -102.5 67.5 -170.5v-582z" />
    <glyph glyph-name="afii59686_" unicode="&#xe06;" horiz-adv-x="870" 
d="M809 252c0 -174.667 -97 -261.998 -291 -261.998c-108 0 -198 41 -270 123v-113h-176v483c0 40 26.833 75.333 80.5 106s80.5 56.334 80.5 77.001c0 18.667 -4.66699 33 -14 43l-92 -78l-127 110l102 88l64 -55l63 51c110.667 8.66699 166 -39 166 -143
c0 -50.667 -24.5 -94.334 -73.5 -131.001s-73.5 -65.334 -73.5 -86.001v-141c0 -42.667 23 -84.334 69 -125.001c52 -46.667 111 -70 177 -70c92.667 0 139 40.333 139 121v569h176v-567z" />
    <glyph glyph-name="afii59687_" unicode="&#xe07;" horiz-adv-x="774" 
d="M735 446c0 -122.667 -28.001 -223 -84.001 -301c-69.333 -96.667 -175 -145 -317 -145h-117l-219 662l145 110l207 -618h2c74 0 129.333 35.333 166 106c32.667 62.667 45 139 37 229c-10.667 126 -84.334 189 -221.001 189c-27.333 0 -56.666 -2 -87.999 -6v153
c36.667 6 71.334 9 104.001 9c256.667 0 385 -129.333 385 -388z" />
    <glyph glyph-name="afii59688_" unicode="&#xe08;" horiz-adv-x="797" 
d="M752 459c0 -147.333 -42 -261.333 -126 -342s-195.667 -121 -335 -121c-19.333 0 -39.333 0.666992 -60 2l-114 448l-37 66h201l88 -354c57.333 8 106 40 146 96s60 124.333 60 205c0 69.333 -19.667 125.5 -59 168.5s-91.333 64.5 -156 64.5
c-106 0 -174.667 -39.667 -206 -119h-168c9.33301 78 47.833 141 115.5 189s153.834 72 258.501 72c119.333 0 213.666 -31.667 282.999 -95c72.667 -66.667 109 -160 109 -280z" />
    <glyph glyph-name="afii59689_" unicode="&#xe09;" horiz-adv-x="850" 
d="M788 0l-176.001 -0.000976562v113c-72 -82 -162 -123 -270 -123c-180 0 -270 87.333 -270 262v203l-21 63h197v-262c0 -84.667 43 -127 129 -127c66.667 0 124 23.333 172 70c42 40.667 63 82.334 63 125.001v223c0 95.333 -67.333 143 -202 143
c-109.333 0 -175.666 -32.667 -198.999 -98h-184c18.667 83.333 67.667 146 147 188c65.333 36 144 54 236 54c107.333 0 195.333 -22 264 -66c76 -49.333 114 -119 114 -209v-559z" />
    <glyph glyph-name="afii59690_" unicode="&#xe0a;" horiz-adv-x="823" 
d="M780 328c0 -110.667 -38.668 -195.334 -116.001 -254.001c-72.667 -52 -169 -77.333 -289 -76l-314 2v819h177v-678l131 -4c64 -1.33301 117.667 13.667 161 45c49.333 34 74 82 74 144c0 50 -16.667 91.5 -50 124.5s-76 49.5 -128 49.5h-119v141h119
c110.667 0 160.334 59.333 149.001 178h173c2.66699 -12 4 -25 4 -39c0 -96.667 -46.667 -167.667 -140 -213c46.667 -17.333 85.667 -46.666 117 -87.999c34 -46 51 -96.333 51 -151z" />
    <glyph glyph-name="afii59691_" unicode="&#xe0b;" horiz-adv-x="856" 
d="M813 328c0 -110.667 -39.001 -195.333 -117.001 -254c-72 -52 -168 -77.333 -288 -76l-314 2v483c0 40 20.167 75.333 60.5 106s60.5 56.334 60.5 77.001c0 18.667 -4.66699 33 -14 43l-92 -78l-127 110l102 88l63 -55l64 51c110.667 8.66699 166 -39 166 -143
c0 -50.667 -17.833 -94.334 -53.5 -131.001s-53.5 -65.334 -53.5 -86.001v-324l131 -4c64.667 -1.33301 118.667 13.667 162 45c49.333 34 74 82 74 144c0 50 -16.667 91.5 -50 124.5s-76 49.5 -128 49.5h-62v141h62c110.667 0 160.334 59.333 149.001 178h172
c2.66699 -12 4 -25 4 -39c0 -96.667 -46.333 -167.667 -139 -213c46.667 -17.333 85.667 -46.666 117 -87.999c34 -46 51 -96.333 51 -151z" />
    <glyph glyph-name="afii59692_" unicode="&#xe0c;" horiz-adv-x="1319" 
d="M1257 254c0 -176 -85.335 -264.001 -256.002 -264.001c-91.333 0 -165.666 32 -222.999 96v-86h-176v547c0 95.333 -63.333 143 -190 143c-93.333 0 -154.333 -24.667 -183 -74c41.333 -25.333 62 -49.666 62 -72.999c0 -14 -8.83301 -31.833 -26.5 -53.5
s-26.5 -41.5 -26.5 -59.5v-289h106v-141h-283v430c0 16.667 10.667 34.5 32 53.5s32 33.833 32 44.5c0 12.667 -28.667 34 -86 64c12 76.667 54.333 136.667 127 180c66.667 41.333 149.334 62 248.001 62c104.667 0 190 -22 256 -66c72 -48 108 -117.667 108 -209v-268
c0 -38.667 17.5 -73.667 52.5 -105s79.167 -47 132.5 -47c78.667 0 118 41 118 123v557h176v-565z" />
    <glyph glyph-name="afii59693_" unicode="&#xe0d;" horiz-adv-x="1319" 
d="M1257 57c0 -90 -29.333 -159.501 -88 -208.501s-138.334 -73.5 -239.001 -73.5h-328v135h316c54 0 95.333 12.333 124 37s41.667 54.667 39 90c-51.333 -36.667 -116 -55 -194 -55c-190 0 -285 82.333 -285 247v318c0 95.333 -63.333 143 -190 143
c-93.333 0 -154.333 -24.667 -183 -74c41.333 -25.333 62 -49.666 62 -72.999c0 -14 -8.83301 -31.833 -26.5 -53.5s-26.5 -41.5 -26.5 -59.5v-289h106v-141h-283v430c0 16.667 10.667 34.5 32 53.5s32 33.833 32 44.5c0 12.667 -28.667 34 -86 64
c12 76.667 54.333 136.667 127 180c66.667 41.333 149.334 62 248.001 62c104.667 0 190 -22 256 -66c72 -48 108 -117.667 108 -209v-321c0 -76.667 43.667 -115 131 -115c46.667 0 85.667 12.333 117 37c36.667 26 55 62 55 108v551h176v-762z" />
    <glyph glyph-name="afii59694_" unicode="&#xe0e;" horiz-adv-x="860" 
d="M799 -305l-159.998 -0.000976562l-129 100l-125 -100h-268v137h219l176 131l111 -86v670c0 95.333 -63.667 143 -191 143c-92.667 0 -153.334 -24.667 -182.001 -74c40.667 -25.333 61 -49.666 61 -72.999c0 -14 -8.83301 -31.833 -26.5 -53.5s-26.5 -41.5 -26.5 -59.5
v-430h-248v143h72v287c0 16.667 10.5 34.5 31.5 53.5s31.5 33.833 31.5 44.5c0 12.667 -28.667 34 -86 64c12.667 76.667 55 136.667 127 180c67.333 41.333 150 62 248 62c105.333 0 190.666 -22 255.999 -66c72.667 -48 109 -117.667 109 -209v-864z" />
    <glyph glyph-name="afii59695_" unicode="&#xe0f;" horiz-adv-x="860" 
d="M799 -305l-159.998 -0.000976562l-92 78l-103 -101l-110 103l-80 -80h-209v135h152l139 115l104 -92l109 92l74 -56v658c0 95.333 -63.667 143 -191 143c-92.667 0 -153.334 -24.667 -182.001 -74c40.667 -25.333 61 -49.666 61 -72.999
c0 -14 -8.83301 -31.833 -26.5 -53.5s-26.5 -41.5 -26.5 -59.5v-430h-248v143h72v287c0 16.667 10.5 34.5 31.5 53.5s31.5 33.833 31.5 44.5c0 12.667 -28.667 34 -86 64c12.667 76.667 55 136.667 127 180c67.333 41.333 150 62 248 62c105.333 0 190.666 -22 255.999 -66
c72.667 -48 109 -117.667 109 -209v-864z" />
    <glyph glyph-name="afii59696_" unicode="&#xe10;" horiz-adv-x="797" 
d="M752 459c0 -147.333 -42.002 -261.333 -126.002 -342s-195.667 -121 -335 -121c-19.333 0 -39.333 0.666992 -60 2l-114 448l-37 66h201l88 -354c57.333 8 106 40 146 96s60 124.333 60 205c0 69.333 -19.667 125.5 -59 168.5s-91.333 64.5 -156 64.5
c-106 0 -174.667 -39.667 -206 -119h-168c9.33301 78 47.833 141 115.5 189s153.834 72 258.501 72c50.667 0 97.334 -6.33301 140.001 -19c26 18 39 40 39 66h186c0 -56 -30.667 -100.333 -92 -133c79.333 -68.667 119 -165 119 -289zM675.998 -301h-144l-81 68l-95 -89
l-96 91l-86 -66h-188v135h143l133 99l94 -87l86 87l78 -72v104h156v-270z" />
    <glyph glyph-name="afii59697_" unicode="&#xe11;" horiz-adv-x="903" 
d="M842 0l-176.001 0.00195312v584c0 61.333 -14.333 92 -43 92c-23.333 0 -62.333 -48 -117 -144c-49.333 -86 -99.166 -187 -149.499 -303s-75.5 -187.667 -75.5 -215v-14h-177v483c0 40 18.5 75.333 55.5 106s55.5 56.334 55.5 77.001c0 18.667 -4.66699 33 -14 43
l-92 -78l-127 110l102 88l63 -55l64 51c110.667 8.66699 166 -39 166 -143c0 -50.667 -16 -94.334 -48 -131.001s-48 -65.334 -48 -86.001v-19c0 -22.667 -6.33301 -79.334 -19 -170.001h6c11.333 50.667 31.333 119.667 60 207l63 117c90 151.333 174.667 227 254 227
c131.333 0 197 -75 197 -225v-602z" />
    <glyph glyph-name="afii59698_" unicode="&#xe12;" horiz-adv-x="1350" 
d="M1288 254c0 -176 -85.3359 -264 -256.003 -264c-91.333 0 -165.666 32 -222.999 96v-86h-176v639l-101 -100l-153 129c-49.333 -15.333 -90.333 -46.5 -123 -93.5s-49 -101.167 -49 -162.5c0 -78 19 -141 57 -189c42.667 -52 100.667 -78 174 -78
c36 0 73.667 6.33301 113 19v-158c-45.333 -6.66699 -87.666 -10 -126.999 -10c-127.333 0 -225.666 39.667 -294.999 119c-65.333 76 -98 175 -98 297c0 112 34.167 205.167 102.5 279.5s162.5 120.833 282.5 139.5l114 -106l113 94h166v-528
c0 -38.667 17.333 -73.667 52 -105s78.667 -47 132 -47c79.333 0 119 41 119 123v557h176v-565z" />
    <glyph glyph-name="afii59699_" unicode="&#xe13;" horiz-adv-x="1319" 
d="M1257 0l-176.002 -0.000976562v86c-57.333 -64 -131.666 -96 -222.999 -96c-170.667 0 -256 88 -256 264v293c0 95.333 -63.333 143 -190 143c-93.333 0 -154.333 -24.667 -183 -74c41.333 -25.333 62 -49.666 62 -72.999c0 -14 -8.83301 -31.833 -26.5 -53.5
s-26.5 -41.5 -26.5 -59.5v-289h106v-141h-283v430c0 16.667 10.667 34.5 32 53.5s32 33.833 32 44.5c0 12.667 -28.667 34 -86 64c12 76.667 54.333 136.667 127 180c66.667 41.333 149.334 62 248.001 62c104.667 0 190 -22 256 -66c72 -48 108 -117.667 108 -209v-297
c0 -82 39.667 -123 119 -123c53.333 0 98.333 16.333 135 49c32.667 30 49 64.333 49 103v528h176v-819z" />
    <glyph glyph-name="afii59700_" unicode="&#xe14;" horiz-adv-x="866" 
d="M805 -2h-176.002v678h-187c-68 0 -124.167 -27 -168.5 -81s-66.5 -117 -66.5 -189c0 -78 18.333 -140.333 55 -187c40 -50.667 95.333 -76 166 -76c36.667 0 76.334 7 119.001 21v-158c-48 -8 -93 -12 -135 -12c-123.333 0 -219 39.667 -287 119
c-62.667 73.333 -94 171 -94 293c0 117.333 39.833 215.5 119.5 294.5s179.834 118.5 300.501 118.5h354v-821z" />
    <glyph glyph-name="afii59701_" unicode="&#xe15;" horiz-adv-x="870" 
d="M809 0h-176.002v639l-101 -100l-153 129c-49.333 -15.333 -90.333 -46.5 -123 -93.5s-49 -101.167 -49 -162.5c0 -78 19 -141 57 -189c42.667 -52 100.667 -78 174 -78c36 0 73.667 6.33301 113 19v-158c-45.333 -6.66699 -87.666 -10 -126.999 -10
c-127.333 0 -225.666 39.667 -294.999 119c-65.333 76 -98 175 -98 297c0 112 34.167 205.167 102.5 279.5s162.5 120.833 282.5 139.5l114 -106l113 94h166v-819z" />
    <glyph glyph-name="afii59702_" unicode="&#xe16;" horiz-adv-x="840" 
d="M778 0l-176.001 -0.000976562v547c0 95.333 -63.333 143 -190 143c-93.333 0 -154.333 -24.667 -183 -74c41.333 -25.333 62 -49.666 62 -72.999c0 -14 -8.83301 -31.833 -26.5 -53.5s-26.5 -41.5 -26.5 -59.5v-289h106v-141h-283v430c0 16.667 10.667 34.5 32 53.5
s32 33.833 32 44.5c0 12.667 -28.667 34 -86 64c12 76.667 54.333 136.667 127 180c66.667 41.333 149.334 62 248.001 62c104.667 0 190 -22 256 -66c72 -48 108 -117.667 108 -209v-559z" />
    <glyph glyph-name="afii59703_" unicode="&#xe17;" horiz-adv-x="860" 
d="M799 0h-176v565c0 83.333 -46.667 125 -140 125c-65.333 0 -124 -23 -176 -69c-46 -41.333 -69 -83 -69 -125v-496h-177v819h177v-112c72 82.667 162 124 270 124c194 0 291 -89.333 291 -268v-563z" />
    <glyph glyph-name="afii59704_" unicode="&#xe18;" horiz-adv-x="823" 
d="M782 287c0 -191.333 -108.333 -286.999 -325 -286.999h-396v401h177v-258h180c129.333 0 192 46 188 138c-2.66699 77.333 -64 121.666 -184 132.999c-138 13.333 -226.667 27.666 -266 42.999c-78 28.667 -115 83.334 -111 164.001c2.66699 64 36.5 115.5 101.5 154.5
s149.167 58.5 252.5 58.5c230.667 0 356.334 -80.667 377.001 -242h-176c-16.667 65.333 -87 98 -211 98c-46.667 0 -86.334 -6.5 -119.001 -19.5s-49 -29.5 -49 -49.5c0 -19.333 24 -33 72 -41c8 -1.33301 62 -7 162 -17c218 -22 327 -114 327 -276z" />
    <glyph glyph-name="afii59705_" unicode="&#xe19;" horiz-adv-x="860" 
d="M799 0l-176 -0.000976562v113c-72.667 -82 -163 -123 -271 -123c-194 0 -291 88.667 -291 266v563h177v-565c0 -83.333 46.333 -125 139 -125c65.333 0 124 23.333 176 70c46.667 40.667 70 82.334 70 125.001v495h176v-819z" />
    <glyph glyph-name="afii59706_" unicode="&#xe1a;" horiz-adv-x="860" 
d="M799 264c0 -90 -37.668 -160.332 -113.001 -210.999c-66.667 -43.333 -152 -65 -256 -65c-105.333 0 -191.333 21.667 -258 65c-74 49.333 -111 119.666 -111 210.999v555h177v-545c0 -47.333 18.333 -83.333 55 -108s82.334 -37 137.001 -37s100.5 12.333 137.5 37
s55.5 60.667 55.5 108v545h176v-555z" />
    <glyph glyph-name="afii59707_" unicode="&#xe1b;" horiz-adv-x="860" 
d="M799 264c0 -90 -37.668 -160.332 -113.001 -210.999c-66.667 -43.333 -152 -65 -256 -65c-105.333 0 -191.333 21.667 -258 65c-74 49.333 -111 119.666 -111 210.999v555h177v-545c0 -47.333 18.333 -83.333 55 -108s82.334 -37 137.001 -37s100.5 12.333 137.5 37
s55.5 60.667 55.5 108v811h176v-821z" />
    <glyph glyph-name="afii59708_" unicode="&#xe1c;" horiz-adv-x="1135" 
d="M1135 819l-236 -819h-143l-189 565l-188 -565h-143l-236 819h332v-131h-121l106 -412l179 543h143l178 -543l141 543h177z" />
    <glyph glyph-name="afii59709_" unicode="&#xe1d;" horiz-adv-x="1135" 
d="M1210 1085l-311 -1085h-143l-189 565l-188 -565h-143l-236 819h332v-131h-121l106 -412l179 543h143l178 -543l217 809h176z" />
    <glyph glyph-name="afii59710_" unicode="&#xe1e;" horiz-adv-x="1135" 
d="M1135 819l-236 -819h-143l-189 565l-188 -565h-143l-236 819h176l141 -543l179 543h143l178 -543l141 543h177z" />
    <glyph glyph-name="afii59711_" unicode="&#xe1f;" horiz-adv-x="1135" 
d="M1210 1085l-311 -1085h-143l-189 565l-188 -565h-143l-236 819h176l141 -543l179 543h143l178 -543l217 809h176z" />
    <glyph glyph-name="afii59712_" unicode="&#xe20;" horiz-adv-x="860" 
d="M799 0l-175.998 -0.000976562v547c0 95.333 -63.667 143 -191 143c-92.667 0 -153.334 -24.667 -182.001 -74c40.667 -25.333 61 -49.666 61 -72.999c0 -14 -8.83301 -31.833 -26.5 -53.5s-26.5 -41.5 -26.5 -59.5v-430h-248v143h72v287c0 16.667 10.5 34.5 31.5 53.5
s31.5 33.833 31.5 44.5c0 12.667 -28.667 34 -86 64c12.667 76.667 55 136.667 127 180c67.333 41.333 150 62 248 62c105.333 0 190.666 -22 255.999 -66c72.667 -48 109 -117.667 109 -209v-559z" />
    <glyph glyph-name="afii59713_" unicode="&#xe21;" horiz-adv-x="860" 
d="M799 256c0 -177.333 -97 -265.999 -291 -265.999c-108 0 -198 41 -270 123v-113h-177v819h177v-495c0 -42.667 23 -84.334 69 -125.001c52 -46.667 110.667 -70 176 -70c93.333 0 140 41.667 140 125v565h176v-563z" />
    <glyph glyph-name="afii59714_" unicode="&#xe22;" horiz-adv-x="870" 
d="M809 0l-394.997 -5.99902c-126 -2.66699 -221.333 18.166 -286 62.499s-95.667 112.833 -93 205.5c1.33301 44 16.666 83.667 45.999 119s63.666 59.333 102.999 72c-86 20 -129 72.333 -129 157c0 101.333 54.667 168.333 164 201c54.667 16.667 125 18.667 211 6v-143
c-28.667 5.33301 -55.334 8 -80.001 8c-79.333 0 -119 -24 -119 -72c0 -48.667 50 -73 150 -73h252v282h176v-819zM633.003 141.001v252h-230c-126.667 0 -190 -43.667 -190 -131c0 -86 74.333 -127.667 223 -125z" />
    <glyph glyph-name="afii59715_" unicode="&#xe23;" horiz-adv-x="793" 
d="M762 268c0 -186.667 -124.332 -279.999 -372.999 -279.999c-242.667 0 -365.667 106.333 -369 319h179c0 -118.667 63.333 -178 190 -178c131.333 0 197 44.333 197 133c0 65.333 -58 103.666 -174 114.999c-128.667 12 -214.667 27.667 -258 47
c-75.333 31.333 -113 88.666 -113 171.999c0 68 33.5 124.667 100.5 170s148.167 68 243.5 68c100 0 182 -19.333 246 -58c76 -46 116.333 -114.333 121 -205h-177c-4 41.333 -27 72.333 -69 93c-34 17.333 -75.667 26 -125 26c-44 0 -82.333 -7.5 -115 -22.5
s-49 -35.5 -49 -61.5c0 -24.667 23.333 -43 70 -55c21.333 -4 71 -10.333 149 -19c101.333 -9.33301 176.666 -29.666 225.999 -60.999c66.667 -43.333 100 -111 100 -203z" />
    <glyph glyph-name="afii59716_" unicode="&#xe24;" horiz-adv-x="840" 
d="M778 -244l-176.001 -0.000976562v791c0 95.333 -63.333 143 -190 143c-93.333 0 -154.333 -24.667 -183 -74c41.333 -25.333 62 -49.666 62 -72.999c0 -14 -8.83301 -31.833 -26.5 -53.5s-26.5 -41.5 -26.5 -59.5v-289h106v-141h-283v430c0 16.667 10.667 34.5 32 53.5
s32 33.833 32 44.5c0 12.667 -28.667 34 -86 64c12 76.667 54.333 136.667 127 180c66.667 41.333 149.334 62 248.001 62c104.667 0 190 -22 256 -66c72 -48 108 -117.667 108 -209v-803z" />
    <glyph glyph-name="afii59717_" unicode="&#xe25;" horiz-adv-x="856" 
d="M795 0l-176.999 0.000976562v397c-32.667 -18.667 -117 -31.667 -253 -39c-105.333 -5.33301 -158 -43.333 -158 -114c0 -70 47 -105 141 -105c40 0 84.333 6.33301 133 19v-154c-57.333 -6.66699 -107.666 -10 -150.999 -10c-199.333 0 -299 83.333 -299 250
c0 156.667 93.333 244 280 262c64.667 4 129 7.33301 193 10c72 10.667 108 36.667 108 78c0 30 -17.333 53.5 -52 70.5s-77.334 25.5 -128.001 25.5s-94.334 -9.33301 -131.001 -28c-40.667 -22 -64.667 -52.333 -72 -91h-180c14 90.667 60.333 159 139 205
c67.333 38.667 149.333 58 246 58c100 0 182 -18.667 246 -56c76.667 -44.667 115 -111.334 115 -200.001v-578z" />
    <glyph glyph-name="afii59718_" unicode="&#xe26;" horiz-adv-x="860" 
d="M799 -244l-175.998 -0.000976562v791c0 95.333 -63.667 143 -191 143c-92.667 0 -153.334 -24.667 -182.001 -74c40.667 -25.333 61 -49.666 61 -72.999c0 -14 -8.83301 -31.833 -26.5 -53.5s-26.5 -41.5 -26.5 -59.5v-430h-248v143h72v287c0 16.667 10.5 34.5 31.5 53.5
s31.5 33.833 31.5 44.5c0 12.667 -28.667 34 -86 64c12.667 76.667 55 136.667 127 180c67.333 41.333 150 62 248 62c105.333 0 190.666 -22 255.999 -66c72.667 -48 109 -117.667 109 -209v-803z" />
    <glyph glyph-name="afii59719_" unicode="&#xe27;" horiz-adv-x="821" 
d="M791 410c0 -148 -38.333 -258 -115 -330c-67.333 -61.333 -158.333 -92 -273 -92c-204.667 0 -328.667 92.667 -372 278h188c34 -91.333 95.333 -137 184 -137c140.667 0 211 93.667 211 281c0 186.667 -70.333 280 -211 280c-88.667 0 -150 -45.667 -184 -137h-188
c43.333 187.333 167.333 281 372 281c114.667 0 205.667 -31.667 273 -95c76.667 -72 115 -181.667 115 -329z" />
    <glyph glyph-name="afii59720_" unicode="&#xe28;" horiz-adv-x="860" 
d="M801 881c0 -27.333 -10.668 -52.334 -32.001 -75.001s-45.666 -38.667 -72.999 -48c68.667 -50.667 103 -117 103 -199v-559h-176v557c0 88.667 -64.333 133 -193 133c-128 0 -192 -44.333 -192 -133v-72h249v-151h-249v-334h-177v559
c0 88.667 39.667 158.334 119 209.001c68.667 44 152 66 250 66c44 0 89 -5.66699 135 -17c32.667 12.667 49 34 49 64h187z" />
    <glyph glyph-name="afii59721_" unicode="&#xe29;" horiz-adv-x="870" 
d="M860 401l-61.001 0.000976562v-137c0 -90 -37.667 -160.333 -113 -211c-66.667 -43.333 -152 -65 -256 -65c-105.333 0 -191.333 21.667 -258 65c-74 49.333 -111 119.666 -111 210.999v555h177v-545c0 -47.333 18.333 -83.333 55 -108s82.334 -37 137.001 -37
s100.5 12.333 137.5 37s55.5 60.667 55.5 108v127h-254v179h176v-56h78v295h176v-295h61v-123z" />
    <glyph glyph-name="afii59722_" unicode="&#xe2a;" horiz-adv-x="856" 
d="M795 0h-176.999v397c-32.667 -18.667 -117 -31.667 -253 -39c-105.333 -5.33301 -158 -43.333 -158 -114c0 -70 47 -105 141 -105c40 0 84.333 6.33301 133 19v-154c-57.333 -6.66699 -107.666 -10 -150.999 -10c-199.333 0 -299 83.333 -299 250
c0 156.667 93.333 244 280 262c64.667 4 129 7.33301 193 10c72 10.667 108 36.667 108 78c0 30 -17.333 53.5 -52 70.5s-77.334 25.5 -128.001 25.5s-94.334 -9.33301 -131.001 -28c-40.667 -22 -64.667 -52.333 -72 -91h-180c14 90.667 60.333 159 139 205
c67.333 38.667 149.333 58 246 58c44 0 86.333 -4.33301 127 -13c27.333 11.333 41 31.333 41 60h186c0 -48 -29.333 -87 -88 -117c63.333 -45.333 95 -107.333 95 -186v-578z" />
    <glyph glyph-name="afii59723_" unicode="&#xe2b;" horiz-adv-x="860" 
d="M758 678h-451v141h451v-141zM799 0l-175.999 0.000976562v367c0 84.667 -46.667 127 -140 127c-61.333 0 -117.5 -21.5 -168.5 -64.5s-76.5 -86.5 -76.5 -130.5v-299h-177v819h177v-276c64 69.333 149.333 104 256 104c91.333 0 163.666 -21 216.999 -63
c58.667 -46.667 88 -114.334 88 -203.001v-381z" />
    <glyph glyph-name="afii59724_" unicode="&#xe2c;" horiz-adv-x="1135" 
d="M1206 1065c-16 -121.333 -90.334 -187.667 -223.001 -199c76.667 -27.333 115 -76.333 115 -147c0 -20.667 -3.66699 -42 -11 -64l-188 -655h-143l-189 563l-188 -563h-143l-236 819h178l139 -543l179 543h143l178 -543l105 400c2.66699 10.667 4 21 4 31
c0 31.333 -12.667 57.833 -38 79.5s-58.666 32.5 -99.999 32.5h-65v123h100c122 0 190.333 41 205 123h178z" />
    <glyph glyph-name="afii59725_" unicode="&#xe2d;" horiz-adv-x="905" 
d="M874 410c0 -140.667 -40.667 -248.668 -122 -324.001c-75.333 -65.333 -175 -98 -299 -98c-124.667 0 -223.667 32.667 -297 98c-83.333 75.333 -125 183.333 -125 324c0 48.667 4.66699 90.334 14 125.001h328v-136h-166c1.33301 -87.333 25.333 -154.666 72 -201.999
c42 -45.333 100 -68 174 -68c74.667 0 134.167 24.167 178.5 72.5s66.5 117.833 66.5 208.5c0 90 -22.167 159.167 -66.5 207.5s-103.833 72.5 -178.5 72.5c-90.667 0 -157 -34.667 -199 -104h-195c56 165.333 187.333 248 394 248c124 0 223.667 -33.667 299 -101
c81.333 -74.667 122 -182.334 122 -323.001z" />
    <glyph glyph-name="afii59726_" unicode="&#xe2e;" horiz-adv-x="905" 
d="M874 410c0 -140.667 -40.667 -248.67 -122 -324.003c-75.333 -65.333 -175 -98 -299 -98c-124.667 0 -223.667 32.667 -297 98c-83.333 75.333 -125 183.333 -125 324c0 48.667 4.66699 90.334 14 125.001h328v-136h-166c1.33301 -87.333 25.333 -154.666 72 -201.999
c42 -45.333 100 -68 174 -68c74.667 0 134.167 24.167 178.5 72.5s66.5 117.833 66.5 208.5c0 90 -22.167 159.167 -66.5 207.5s-103.833 72.5 -178.5 72.5c-90.667 0 -157 -34.667 -199 -104h-195c56 165.333 187.333 248 394 248c48.667 0 91.667 -5 129 -15
c27.333 15.333 41 36 41 62h186c0 -53.333 -30.667 -93.666 -92 -120.999c104.667 -71.333 157 -188 157 -350z" />
    <glyph glyph-name="afii59727_" unicode="&#xe2f;" horiz-adv-x="784" 
d="M723 0h-174.002v530c-71.333 -65.333 -156.666 -98 -255.999 -98c-70 0 -129.333 17.667 -178 53c-56 38.667 -84 90.667 -84 156c0 58.667 23.667 105 71 139c44 30 99.333 45 166 45c42.667 0 83.667 -6.66699 123 -20v-131c-28.667 16 -59.334 24 -92.001 24
c-62.667 0 -94 -19.667 -94 -59c0 -42.667 30 -64 90 -64c70.667 0 128.334 22.333 173.001 67s72.334 103.667 83.001 177h172v-819z" />
    <glyph glyph-name="afii59729_" unicode="&#xe30;" horiz-adv-x="397" 
d="M367 645c0 -42 -15.833 -78 -47.5 -108s-71.834 -45 -120.501 -45c-49.333 0 -89.666 15 -120.999 45s-47 66 -47 108c0 42.667 15.667 79 47 109s71.666 45 120.999 45c48.667 0 88.834 -15 120.501 -45s47.5 -66.333 47.5 -109zM367 174
c0 -42 -15.833 -78.167 -47.5 -108.5s-71.834 -45.5 -120.501 -45.5c-49.333 0 -89.666 15.167 -120.999 45.5s-47 66.5 -47 108.5c0 42.667 15.667 79 47 109s71.666 45 120.999 45c48.667 0 88.834 -15 120.501 -45s47.5 -66.333 47.5 -109zM262 645c0 38 -21 57 -63 57
c-42.667 0 -64 -19 -64 -57s21.333 -57 64 -57c42 0 63 19 63 57zM262 174c0 38 -21 57 -63 57c-42.667 0 -64 -19 -64 -57s21.333 -57 64 -57c42 0 63 19 63 57z" />
    <glyph glyph-name="afii59728_" unicode="&#xe31;" 
d="M170 922h-623v200h177v-90h446v-110z" />
    <glyph glyph-name="afii59730_" unicode="&#xe32;" horiz-adv-x="481" 
d="M420 0h-175.999v578c0 30 -14.333 54.5 -43 73.5s-68.334 28.5 -119.001 28.5c-22 0 -46 -2 -72 -6v143c38.667 6.66699 75.667 10 111 10c88.667 0 160.667 -19 216 -57s83 -92 83 -162v-608z" />
    <glyph glyph-name="afii59731_" unicode="&#xe33;" horiz-adv-x="481" 
d="M-14 1030c0 -34 -12.667 -62 -38 -84s-57 -33 -95 -33c-38.667 0 -70.667 11 -96 33s-38 50 -38 84s12.667 62 38 84s57.333 33 96 33c38 0 69.667 -11 95 -33s38 -50 38 -84zM420 0h-175.999v578c0 30 -14.333 54.5 -43 73.5s-68.334 28.5 -119.001 28.5
c-22 0 -46 -2 -72 -6v143c38.667 6.66699 75.667 10 111 10c88.667 0 160.667 -19 216 -57s83 -92 83 -162v-608zM-95.999 1030c0 30 -17 45 -51 45c-34.667 0 -52 -15 -52 -45s17.333 -45 52 -45c34 0 51 15 51 45z" />
    <glyph glyph-name="afii59732_" unicode="&#xe34;" 
d="M-59 922h-666v110h666v-110z" />
    <glyph glyph-name="afii59733_" unicode="&#xe35;" 
d="M-59 922h-666v110h489v105h177v-215z" />
    <glyph glyph-name="afii59734_" unicode="&#xe36;" 
d="M-18 1034c0 -32.667 -12.001 -59.5 -36.001 -80.5s-55 -31.5 -93 -31.5h-578v110h449c0 34 11.833 61.667 35.5 83s54.834 32 93.501 32c38 0 69 -10.667 93 -32s36 -48.333 36 -81zM-100.001 1034c0 28.667 -15.667 43 -47 43c-32 0 -48 -14.333 -48 -43s16 -43 48 -43
c31.333 0 47 14.333 47 43z" />
    <glyph glyph-name="afii59735_" unicode="&#xe37;" 
d="M-59 922h-666v110h313v105h115v-105h61v105h177v-215z" />
    <glyph glyph-name="afii59736_" unicode="&#xe38;" 
d="M-59 -326h-177v156h-81v111h258v-267z" />
    <glyph glyph-name="afii59737_" unicode="&#xe39;" 
d="M-59 -190c0 -90.667 -72.333 -136 -217 -136c-139.333 0 -209 45.333 -209 136v20h-62v111h217v-131c0 -32 15.667 -48 47 -48s47 16 47 48v131h177v-131z" />
    <glyph glyph-name="afii59738_" unicode="&#xe3a;" 
d="M-33 -174c0 -31.333 -11.167 -58.333 -33.5 -81s-49.166 -34 -80.499 -34c-32 0 -59.167 11.333 -81.5 34s-33.5 49.667 -33.5 81s11.167 58.333 33.5 81s49.5 34 81.5 34c31.333 0 58.166 -11.333 80.499 -34s33.5 -49.667 33.5 -81z" />
    <glyph glyph-name="afii59743_" unicode="&#xe3f;" horiz-adv-x="969" 
d="M918 272c0 -81.333 -29 -146 -87 -194c-62.667 -52 -154.667 -78 -276 -78h-37v-127h-74v127h-342v965h342v129h74v-129h62c196 0 294 -81.333 294 -244c0 -92.667 -40.667 -159.667 -122 -201c110.667 -31.333 166 -114 166 -248zM690 690c0 82 -45 123 -135 123h-37
v-246h37c90 0 135 41 135 123zM444 567v246h-155v-246h155zM733 295c0 90 -51 135 -153 135h-62v-278h62c102 0 153 47.667 153 143zM444 152v278h-155v-278h155z" />
    <glyph glyph-name="afii59744_" unicode="&#xe40;" horiz-adv-x="381" 
d="M279 0h-177v819h177v-819z" />
    <glyph glyph-name="afii59745_" unicode="&#xe41;" horiz-adv-x="680" 
d="M578 0h-177v819h177v-819zM279 0h-177v819h177v-819z" />
    <glyph glyph-name="afii59746_" unicode="&#xe42;" horiz-adv-x="422" 
d="M473 1133l-190 4c-52 1.33301 -78 -7.66699 -78 -27c0 -6.66699 15.667 -23 47 -49s47 -59.333 47 -100v-961h-176v930c0 34 -15.667 66.667 -47 98s-47 62 -47 92c0 37.333 16 68.5 48 93.5s78.667 36.833 140 35.5l256 -4v-112z" />
    <glyph glyph-name="afii59747_" unicode="&#xe43;" horiz-adv-x="422" 
d="M395 1110c0 -34 -15.999 -67 -47.999 -99s-48 -63 -48 -93v-918h-176v934c0 38 15.667 70 47 96s47 49.333 47 70c0 39.333 -24.667 59 -74 59c-30 0 -52.5 -8.83301 -67.5 -26.5s-21.167 -38.167 -18.5 -61.5h-139c-1.33301 8 -2 17 -2 27c0 50.667 22.5 92 67.5 124
s103.167 48 174.5 48c73.333 0 131.166 -14.667 173.499 -44s63.5 -68 63.5 -116z" />
    <glyph glyph-name="afii59748_" unicode="&#xe44;" horiz-adv-x="422" 
d="M356 1135c0 -19.333 -9.5 -41.668 -28.5 -67.001s-28.5 -47.666 -28.5 -66.999v-1001h-176v999c0 23.333 9.83301 45 29.5 65s29.5 34 29.5 42c0 10.667 -11.667 16 -35 16h-14l-88 -57l-199 111l107 71l90 -57l74 43h90c98 0 147.667 -32.667 149 -98z" />
    <glyph glyph-name="afii59749_" unicode="&#xe45;" horiz-adv-x="481" 
d="M420 -244h-175.999v822c0 30 -14.333 54.5 -43 73.5s-68.334 28.5 -119.001 28.5c-22 0 -46 -2 -72 -6v143c38.667 6.66699 75.667 10 111 10c88.667 0 160.667 -19 216 -57s83 -92 83 -162v-852z" />
    <glyph glyph-name="afii59750_" unicode="&#xe46;" horiz-adv-x="788" 
d="M727 -244l-176 0.00195312v854l-86 -78l-180 148c-20.667 -2.66699 -38.5 -11.5 -53.5 -26.5s-22.5 -32.167 -22.5 -51.5c0 -56 38.333 -84 115 -84c12 0 24.667 1.33301 38 4v-145c-21.333 -2.66699 -42.333 -4 -63 -4c-82 0 -147.167 20.167 -195.5 60.5
s-72.5 93.166 -72.5 158.499s27.667 121.166 83 167.499s130 69.5 224 69.5l125 -102l106 92h158v-1063z" />
    <glyph glyph-name="afii59751_" unicode="&#xe47;" 
d="M-78 1120h-405c-66 0 -99 -20.333 -99 -61c0 -16.667 6.33301 -29.667 19 -39h67l177 76l208 -84v-119l-204 86l-160 -68l-168 2c-50.667 30 -76 76.667 -76 140c0 46 19.167 85.5 57.5 118.5s90.833 49.5 157.5 49.5h426v-101z" />
    <glyph glyph-name="afii59752_" unicode="&#xe48;" 
d="M-59 1198h-177v174h177v-174z" />
    <glyph glyph-name="afii59753_" unicode="&#xe49;" 
d="M39 1198h-375v35c0 36.667 -18.333 55 -55 55h-29v101h133c72.667 0 109 -31 109 -93h217v-98z" />
    <glyph glyph-name="afii59754_" unicode="&#xe4a;" 
d="M125 1198h-188.002v86c0 27.333 -12.333 41 -37 41h-11l-79 -55l-84 55h-2c-27.333 0 -39.666 -13.667 -36.999 -41v-4h55v-82h-162v94c0 41.333 14 73.5 42 96.5s63.333 34.5 106 34.5h14l70 -49l65 49h17c92.667 0 140.334 -41.667 143.001 -125h88v-100z" />
    <glyph glyph-name="afii59755_" unicode="&#xe4b;" 
d="M10 1270h-76v-72h-159v72h-78v78h78v71h159v-71h76v-78z" />
    <glyph glyph-name="afii59756_" unicode="&#xe4c;" 
d="M0 1169h-88c-44 0 -66 -19 -66 -57v-18h-157v61c0 83.333 47.667 125 143 125h168v-111z" />
    <glyph glyph-name="afii59757_" unicode="&#xe4d;" 
d="M-14 1030c0 -34 -12.667 -62 -38 -84s-57 -33 -95 -33c-38.667 0 -70.667 11 -96 33s-38 50 -38 84s12.667 62 38 84s57.333 33 96 33c38 0 69.667 -11 95 -33s38 -50 38 -84zM-96 1030c0 30 -17 45 -51 45c-34.667 0 -52 -15 -52 -45s17.333 -45 52 -45
c34 0 51 15 51 45z" />
    <glyph glyph-name="afii59758_" unicode="&#xe4e;" 
d="M2 1430c-79.333 1.33301 -148.668 -5.16992 -208.001 -19.5029s-89 -32.5 -89 -54.5c0 -20.667 19.667 -33.667 59 -39c18 -1.33301 38.667 -1.33301 62 0v-94c-74 4 -132.667 -1 -176 -15c-58.667 -18.667 -84 -41.667 -76 -69c2.66699 -11.333 16.334 -17 41.001 -17
c44 0 85 13 123 39l53 -90c-76.667 -39.333 -145.667 -55.666 -207 -48.999c-87.333 9.33301 -132.333 47 -135 113c-1.33301 38 15 72 49 102c30 26 66.333 43 109 51c-19.333 16.667 -29 39.334 -29 68.001c0 26 12.667 53 38 81s57 49.333 95 64
c62.667 24.667 159.667 36.334 291 35.001v-106z" />
    <glyph glyph-name="afii59759_" unicode="&#xe4f;" horiz-adv-x="963" 
d="M901 410c0 -116 -41 -214.667 -123 -296s-181 -122 -297 -122s-215 40.667 -297 122s-123 180 -123 296s41 214.833 123 296.5s181 122.5 297 122.5s215 -40.833 297 -122.5s123 -180.5 123 -296.5zM840 410c0 98 -35.167 182.167 -105.5 252.5
s-154.833 105.5 -253.5 105.5c-98 0 -182.167 -35.167 -252.5 -105.5s-105.5 -154.5 -105.5 -252.5c0 -98.667 35.167 -183.167 105.5 -253.5s154.5 -105.5 252.5 -105.5c98.667 0 183.167 35.167 253.5 105.5s105.5 154.833 105.5 253.5zM737 410
c0 -71.333 -24.833 -131.833 -74.5 -181.5s-110.167 -74.5 -181.5 -74.5c-70.667 0 -131 24.833 -181 74.5s-75 110.167 -75 181.5c0 70.667 25 131 75 181s110.333 75 181 75c71.333 0 131.833 -25 181.5 -75s74.5 -110.333 74.5 -181z" />
    <glyph glyph-name="afii59760_" unicode="&#xe50;" horiz-adv-x="815" 
d="M774 307c0 -90 -34.167 -165.333 -102.5 -226s-156.166 -91 -263.499 -91c-108 0 -196.167 30.333 -264.5 91s-102.5 136 -102.5 226s34.167 165.833 102.5 227.5s156.5 92.5 264.5 92.5c107.333 0 195.166 -30.833 263.499 -92.5s102.5 -137.5 102.5 -227.5zM621 307
c0 53.333 -19.833 97.833 -59.5 133.5s-91.5 53.5 -155.5 53.5c-64.667 0 -116.834 -17.833 -156.501 -53.5s-59.5 -80.167 -59.5 -133.5s19.833 -97.666 59.5 -132.999s91.834 -53 156.501 -53c64 0 115.833 17.667 155.5 53s59.5 79.666 59.5 132.999z" />
    <glyph glyph-name="afii59761_" unicode="&#xe51;" horiz-adv-x="864" 
d="M823 311c0 -102 -46.999 -191.334 -140.999 -268.001c-86 -69.333 -192.667 -113.666 -320 -132.999l-65 102c106.667 14 195.167 48 265.5 102s105.5 116.333 105.5 187c0 56 -22.667 102.167 -68 138.5s-103.333 54.5 -174 54.5
c-65.333 0 -119.833 -16.167 -163.5 -48.5s-65.5 -72.833 -65.5 -121.5c0 -52 21 -86.333 63 -103c-4 12.667 -6 27.667 -6 45c0 38.667 15.333 71.667 46 99s66.667 41 108 41c43.333 0 80 -13.667 110 -41s45 -60.333 45 -99c0 -54.667 -22.5 -100 -67.5 -136
s-102.833 -54 -173.5 -54c-75.333 0 -141 22.833 -197 68.5s-84 106.167 -84 181.5c0 90 36.5 162.667 109.5 218s164.167 83 273.5 83c121.333 0 218.166 -28.333 290.499 -85s108.5 -133.667 108.5 -231zM467.001 261.999c0 38 -19 57 -57 57c-38.667 0 -58 -19 -58 -57
s19.333 -57 58 -57c38 0 57 19 57 57z" />
    <glyph glyph-name="afii59762_" unicode="&#xe52;" horiz-adv-x="1159" 
d="M1098 199c0 -62 -19.501 -110.667 -58.501 -146s-90.5 -53 -154.5 -53h-611c-65.333 0 -117.166 17.667 -155.499 53s-57.5 84 -57.5 146v432c0 60 -41.333 90 -124 90l67 117c142 0 213 -55.333 213 -166v-457c0 -52 28.667 -78 86 -78h553c57.333 0 86 26 86 78v223
c0 49.333 -28 74 -84 74c-19.333 0 -37.166 -6.16699 -53.499 -18.5s-24.5 -26.5 -24.5 -42.5v-252h-155v243c0 46.667 -33.667 70 -101 70c-52 0 -85.333 -19 -100 -57c-1.33301 -2.66699 -1.33301 -4 0 -4c40.667 0 75.334 -12.667 104.001 -38s43 -56.666 43 -93.999
c0 -36.667 -14.333 -67.667 -43 -93s-63.334 -38 -104.001 -38c-41.333 0 -75.833 12.667 -103.5 38s-41.5 56.333 -41.5 93v111c0 61.333 23.5 111.166 70.5 149.499s106.5 57.5 178.5 57.5c78 0 136 -24 174 -72c40 48 94 72 162 72
c71.333 0 128.166 -18.167 170.499 -54.5s63.5 -85.833 63.5 -148.5v-235zM478.999 322c0 34 -17 51 -51 51s-51 -17 -51 -51c0 -34.667 17 -52 51 -52s51 17.333 51 52z" />
    <glyph glyph-name="afii59763_" unicode="&#xe53;" horiz-adv-x="997" 
d="M936 0l-156 -0.000976562v416c0 56 -30.667 84 -92 84c-26 0 -47.5 -7.16699 -64.5 -21.5s-25.5 -32.5 -25.5 -54.5v-424h-156v418c0 54.667 -35.333 82 -106 82c-34 0 -62.333 -8.16699 -85 -24.5s-34 -37.5 -34 -63.5v-113h14c46.667 0 86.667 -15 120 -45
s50 -66.333 50 -109c0 -43.333 -16.333 -79.666 -49 -108.999s-73 -44 -121 -44c-47.333 0 -87.5 14.667 -120.5 44s-49.5 65.666 -49.5 108.999v263c0 69.333 28 124.333 84 165c50.667 37.333 113.667 56 189 56c87.333 0 150 -26.667 188 -80c38.667 53.333 96 80 172 80
c72.667 0 131.167 -18.167 175.5 -54.5s66.5 -87.166 66.5 -152.499v-422zM293 142.999c0 40 -20 60 -60 60c-39.333 0 -59 -20 -59 -60c0 -39.333 19.667 -59 59 -59c40 0 60 19.667 60 59z" />
    <glyph glyph-name="afii59764_" unicode="&#xe54;" horiz-adv-x="926" 
d="M926 844c1.33301 -97.333 -22.001 -178.001 -70.001 -242.001s-112.667 -97.333 -194 -100c-32 -1.33301 -71 -0.666016 -117 2.00098c-61.333 2.66699 -106.333 4 -135 4c-62 0 -113 -17.833 -153 -53.5s-60 -84.167 -60 -145.5c0 -57.333 18.333 -102.666 55 -135.999
s81.667 -50 135 -50c57.333 0 99.666 5.33301 126.999 16c-68 37.333 -102 87.333 -102 150c0 43.333 16.333 79.666 49 108.999s70.667 44 114 44c46.667 0 85.334 -14 116.001 -42s46 -63 46 -105c0 -41.333 -18.333 -78.333 -55 -111c13.333 -8 51 -17.333 113 -28
c52.667 -8.66699 95 -28.667 127 -60l-88 -104c-67.333 31.333 -123.333 47 -168 47c-23.333 0 -65 -8.5 -125 -25.5s-114 -25.5 -162 -25.5c-95.333 0 -174 25 -236 75c-68 59.333 -102 141.333 -102 246c0 100 36.333 180.667 109 242
c68 58.667 154.667 87.334 260 86.001c30 0 70.667 -2 122 -6c37.333 -1.33301 74.333 -1.33301 111 0s67.334 23.666 92.001 66.999c22 40 33.667 88.667 35 146h156zM634.999 294.999c0 39.333 -20 59 -60 59c-39.333 0 -59 -19.667 -59 -59s19.667 -59 59 -59
c40 0 60 19.667 60 59z" />
    <glyph glyph-name="afii59765_" unicode="&#xe55;" horiz-adv-x="926" 
d="M926 844c1.33301 -97.333 -22 -178.002 -70 -242.002s-112.667 -97.333 -194 -100c-32 -1.33301 -71 -0.666016 -117 2.00098c-61.333 2.66699 -106.333 4 -135 4c-62 0 -113 -17.833 -153 -53.5s-60 -84.167 -60 -145.5c0 -57.333 18.333 -102.666 55 -135.999
s81.667 -50 135 -50c57.333 0 99.666 5.33301 126.999 16c-68 37.333 -102 87.333 -102 150c0 43.333 16.333 79.666 49 108.999s70.667 44 114 44c46.667 0 85.334 -14 116.001 -42s46 -63 46 -105c0 -41.333 -18.333 -78.333 -55 -111c13.333 -8 51 -17.333 113 -28
c52.667 -8.66699 95 -28.667 127 -60l-88 -104c-67.333 31.333 -123.333 47 -168 47c-23.333 0 -65 -8.5 -125 -25.5s-114 -25.5 -162 -25.5c-95.333 0 -174 25 -236 75c-68 59.333 -102 141.333 -102 246c0 79.333 22.5 146.333 67.5 201s104.5 92.334 178.5 113.001
c-14 18.667 -21 41.667 -21 69c0 46.667 17.833 84.334 53.5 113.001s81.5 43 137.5 43s101.667 -14.333 137 -43s53 -66.334 53 -113.001c0 -20 -7.33301 -40.333 -22 -61c12 0 27.167 0.333008 45.5 1s39.833 22.667 64.5 66c22 40 33.667 88.667 35 146h156zM526 695.998
c0 16.667 -6.83301 31.167 -20.5 43.5s-29.834 18.5 -48.501 18.5c-19.333 0 -35.833 -6.16699 -49.5 -18.5s-20.5 -26.833 -20.5 -43.5c0 -16 6.83301 -30.167 20.5 -42.5s30.167 -18.5 49.5 -18.5c18.667 0 34.834 6.16699 48.501 18.5s20.5 26.5 20.5 42.5zM635 294.998
c0 39.333 -20 59 -60 59c-39.333 0 -59 -19.667 -59 -59s19.667 -59 59 -59c40 0 60 19.667 60 59z" />
    <glyph glyph-name="afii59766_" unicode="&#xe56;" horiz-adv-x="872" 
d="M831 317c0 -95.333 -38.165 -174.001 -114.498 -236.001s-171.833 -93 -286.5 -93c-104 0 -188.667 25 -254 75c-58.667 46.667 -88 101.334 -88 164.001c0 44 16 80 48 108s71.333 42 118 42c45.333 0 83.666 -14 114.999 -42s47 -63.333 47 -106
c0 -43.333 -16.333 -77.333 -49 -102c32.667 -4 52.334 -6 59.001 -6c69.333 0 128.333 18.667 177 56s73 85.666 73 144.999c0 52.667 -21.833 96.834 -65.5 132.501s-96.834 53.5 -159.501 53.5c-94.667 0 -168 -27.333 -220 -82h-122c-26 150 -87 262.667 -183 338
l125 80c96 -60 154 -151.667 174 -275c61.333 46.667 138.666 70 231.999 70c109.333 0 199 -29.667 269 -89s105 -137 105 -233zM311.002 224.999c0 40 -19.667 60 -59 60s-59 -20 -59 -60c0 -39.333 19.667 -59 59 -59s59 19.667 59 59z" />
    <glyph glyph-name="afii59767_" unicode="&#xe57;" horiz-adv-x="1233" 
d="M1313 752c-74 -36 -116.999 -82.6709 -128.999 -140.004c-4 -17.333 -6 -37 -6 -59c0 -16.667 2.66699 -50.667 8 -102c5.33301 -44 6.66602 -80.333 3.99902 -109c-8 -95.333 -42.333 -174 -103 -236c-54 -55.333 -120.667 -90.666 -200 -105.999h-107v416
c0 56 -30.667 84 -92 84c-26 0 -47.5 -7.16699 -64.5 -21.5s-25.5 -32.5 -25.5 -54.5v-424h-156v418c0 54.667 -35.333 82 -106 82c-34 0 -62.333 -8.16699 -85 -24.5s-34 -37.5 -34 -63.5v-113h14c46.667 0 86.667 -15 120 -45s50 -66.333 50 -109
c0 -43.333 -16.333 -79.666 -49 -108.999s-73 -44 -121 -44c-47.333 0 -87.5 14.667 -120.5 44s-49.5 65.666 -49.5 108.999v263c0 69.333 28 124.333 84 165c50.667 37.333 113.667 56 189 56c87.333 0 150 -26.667 188 -80c38.667 53.333 96 80 172 80
c72.667 0 131.167 -18.167 175.5 -54.5s66.5 -87.166 66.5 -152.499v-252c61.333 30 94 88.667 98 176c1.33301 32.667 -0.333984 73.334 -5.00098 122.001s-7 82.334 -7 101.001c0 24.667 2 48 6 70c16.667 86 67.334 154.333 152.001 205zM293.001 142.996
c0 40 -20 60 -60 60c-39.333 0 -59 -20 -59 -60c0 -39.333 19.667 -59 59 -59c40 0 60 19.667 60 59z" />
    <glyph glyph-name="afii59768_" unicode="&#xe58;" horiz-adv-x="934" 
d="M946 844c-22 -230.667 -103.33 -348.999 -243.997 -354.999c-34 -1.33301 -81.667 2.16699 -143 10.5s-109 12.5 -143 12.5c-64.667 0 -117.334 -15.667 -158.001 -47s-61 -73.666 -61 -126.999c0 -82 37.333 -143.333 112 -184l125 151c88.667 -112 155 -168 199 -168
c5.33301 0 10.666 3.33301 15.999 10c-54.667 23.333 -82 65.666 -82 126.999c0 38.667 15.333 72 46 100s68 42 112 42s82 -14.667 114 -44s48 -66 48 -110c0 -66.667 -26.667 -127.334 -80 -182.001s-114.666 -82 -183.999 -82c-52 0 -113.667 31.333 -185 94l-76 -102
c-96.667 10.667 -174.334 48.167 -233.001 112.5s-88 142.833 -88 235.5c0 95.333 35.333 170.333 106 225c67.333 52 157.666 78 270.999 78c30 0 75 -3.33301 135 -10c53.333 -5.33301 94.333 -7.33301 123 -6c62.667 2.66699 101 75.667 115 219h155zM784.003 268.001
c0 40 -19.667 60 -59 60s-59 -20 -59 -60c0 -39.333 19.667 -59 59 -59s59 19.667 59 59z" />
    <glyph glyph-name="afii59769_" unicode="&#xe59;" horiz-adv-x="1036" 
d="M1079 848c2.66699 -23.333 3.99902 -47.334 3.99902 -72.001c0 -125.333 -34.667 -240.666 -104 -345.999l-80 12c-12 45.333 -42 68 -90 68c-35.333 0 -59.333 -16.333 -72 -49c74 -109.333 124 -260.333 150 -453l-156 -18c-22 155.333 -53.333 274 -94 356
c-56 113.333 -136 170 -240 170c-56 0 -103.333 -18.833 -142 -56.5s-58 -82.167 -58 -133.5c0 -57.333 17 -105.333 51 -144c4 40 21.333 73.667 52 101s68 41 112 41c44.667 0 82.667 -15.167 114 -45.5s47 -66.5 47 -108.5c0 -53.333 -20 -96.666 -60 -129.999
s-89.333 -50 -148 -50c-98.667 0 -178 34 -238 102c-57.333 64 -86 142 -86 234c0 94 33.5 171.667 100.5 233s150.167 92 249.5 92c106.667 0 190.667 -27.333 252 -82c24.667 49.333 67.667 78 129 86c62.667 8.66699 111.334 -4.33301 146.001 -39
c18.667 59.333 22 136.666 10 231.999h151zM466.999 163.999c0 39.333 -19.667 59 -59 59c-40 0 -60 -19.667 -60 -59c0 -40 20 -60 60 -60c39.333 0 59 20 59 60z" />
    <glyph glyph-name="afii59770_" unicode="&#xe5a;" horiz-adv-x="999" 
d="M938 0h-133v819h133v-819zM723 0h-174.002v530c-71.333 -65.333 -156.666 -98 -255.999 -98c-70 0 -129.333 17.667 -178 53c-56 38.667 -84 90.667 -84 156c0 58.667 23.667 105 71 139c44 30 99.333 45 166 45c42.667 0 83.667 -6.66699 123 -20v-131
c-28.667 16 -59.334 24 -92.001 24c-62.667 0 -94 -19.667 -94 -59c0 -42.667 30 -64 90 -64c70.667 0 128.334 22.333 173.001 67s72.334 103.667 83.001 177h172v-819z" />
    <glyph glyph-name="afii59771_" unicode="&#xe5b;" horiz-adv-x="1516" 
d="M1473 434c0 -23.333 -21.3311 -37.6631 -63.998 -42.9961l-147 -18c-14 -37.333 -32.667 -56 -56 -56c-13.333 0 -31.666 20 -54.999 60c-12 -56 -34 -84 -66 -84c-12 0 -23.5 8.83301 -34.5 26.5l-32.5 53.5c-12.667 -68.667 -37.334 -103 -74.001 -103
c-14.667 0 -27.667 11 -39 33l-28 80c-24.667 -91.333 -58.334 -137 -101.001 -137c-28.667 0 -47 20.333 -55 61c-2.66699 18 -9 42.667 -19 74c-22.667 -86 -58 -155.667 -106 -209c-74 -82 -156 -123 -246 -123c-84.667 0 -154 33.833 -208 101.5s-81 156.167 -81 265.5
c0 103.333 25.667 190.166 77 260.499s114.666 105.5 189.999 105.5c65.333 0 119.833 -25.5 163.5 -76.5s65.5 -115.5 65.5 -193.5c0 -61.333 -14.333 -111.833 -43 -151.5s-64.667 -59.5 -108 -59.5c-38.667 0 -70.667 14.667 -96 44s-38 64.666 -38 105.999
c0 40.667 13 75.667 39 105s56.667 44 92 44c6 0 11 -0.666992 15 -2c-14 48 -43.333 72 -88 72c-41.333 0 -76 -24.667 -104 -74s-42 -112 -42 -188c0 -76.667 16.5 -137.834 49.5 -183.501s75.833 -68.5 128.5 -68.5c62 0 116.5 33.667 163.5 101
s77.833 155.666 92.5 264.999c8.66699 62.667 31.334 94 68.001 94c42.667 0 76.667 -45 102 -135c3.33301 18 5 36 5 54c1.33301 40.667 18.333 61 51 61s64.667 -32.667 96 -98c6.66699 40.667 21.667 61 45 61c31.333 0 62.666 -29.333 93.999 -88
c12.667 38 29.667 57 51 57c20.667 0 44 -19 70 -57c11.333 20.667 28.333 29.667 51 27l158 -19c42.667 -5.33301 64 -20.333 64 -45zM453.002 453.003c0 38 -16.667 57 -50 57c-30 0 -45 -19 -45 -57c0 -38.667 15 -58 45 -58c33.333 0 50 19.333 50 58z" />
    <glyph glyph-name="endash_" unicode="&#x2013;" horiz-adv-x="766" 
d="M725 274h-684v134h684v-134z" />
    <glyph glyph-name="emdash_" unicode="&#x2014;" horiz-adv-x="1532" 
d="M1491 274h-1450v134h1450v-134z" />
    <glyph glyph-name="quoteleft_" unicode="&#x2018;" horiz-adv-x="440" 
d="M348 748c0 -33.333 -11.5 -61.833 -34.5 -85.5s-51.833 -35.5 -86.5 -35.5c-90 0 -135 48.333 -135 145c0 98.667 53.333 184.667 160 258l82 -33c-67.333 -44.667 -105 -89 -113 -133c35.333 1.33301 65.333 -9.16699 90 -31.5s37 -50.5 37 -84.5z" />
    <glyph glyph-name="quoteright_" unicode="&#x2019;" horiz-adv-x="440" 
d="M348 885c0 -98.667 -53.333 -184.667 -160 -258l-82 32c67.333 45.333 105 90 113 134c-35.333 -1.33301 -65.333 9.16699 -90 31.5s-37 50.5 -37 84.5c0 32.667 11.667 61 35 85s52 36 86 36c90 0 135 -48.333 135 -145z" />
    <glyph glyph-name="quotedblleft_" unicode="&#x201c;" horiz-adv-x="758" 
d="M666 748c0 -33.333 -11.667 -61.833 -35 -85.5s-52 -35.5 -86 -35.5c-90 0 -135 48.333 -135 145c0 98.667 53 184.667 159 258l82 -33c-66.667 -44.667 -104 -89 -112 -133c35.333 1.33301 65.333 -9.16699 90 -31.5s37 -50.5 37 -84.5zM348 748
c0 -33.333 -11.5 -61.833 -34.5 -85.5s-51.833 -35.5 -86.5 -35.5c-90 0 -135 48.333 -135 145c0 98.667 53.333 184.667 160 258l82 -33c-67.333 -44.667 -105 -89 -113 -133c35.333 1.33301 65.333 -9.16699 90 -31.5s37 -50.5 37 -84.5z" />
    <glyph glyph-name="quotedblright_" unicode="&#x201d;" horiz-adv-x="758" 
d="M666 885c0 -98.667 -53.334 -184.667 -160.001 -258l-82 32c66.667 45.333 104.334 90 113.001 134c-36 -1.33301 -66.167 9.16699 -90.5 31.5s-36.5 50.5 -36.5 84.5c0 32.667 11.5 61 34.5 85s51.5 36 85.5 36c90.667 0 136 -48.333 136 -145zM347.999 885
c0 -98.667 -53.333 -184.667 -160 -258l-82 32c67.333 45.333 105 90 113 134c-35.333 -1.33301 -65.333 9.16699 -90 31.5s-37 50.5 -37 84.5c0 32.667 11.667 61 35 85s52 36 86 36c90 0 135 -48.333 135 -145z" />
    <glyph glyph-name="bullet_" unicode="&#x2022;" horiz-adv-x="737" 
d="M676 410c0 -84.667 -30 -157.167 -90 -217.5s-132.333 -90.5 -217 -90.5s-157.167 30.167 -217.5 90.5s-90.5 132.833 -90.5 217.5s30.167 157 90.5 217s132.833 90 217.5 90s157 -30 217 -90s90 -132.333 90 -217z" />
    <glyph glyph-name="ellipsis_" unicode="&#x2026;" horiz-adv-x="1143" 
d="M1061 98c0 -30 -10.667 -55.167 -32 -75.5s-47 -30.5 -77 -30.5s-55.5 10.167 -76.5 30.5s-31.5 45.5 -31.5 75.5s10.5 55.667 31.5 77s46.5 32 76.5 32s55.667 -10.667 77 -32s32 -47 32 -77zM680 98c0 -30 -10.667 -55.167 -32 -75.5s-47 -30.5 -77 -30.5
s-55.5 10.167 -76.5 30.5s-31.5 45.5 -31.5 75.5s10.5 55.667 31.5 77s46.5 32 76.5 32s55.667 -10.667 77 -32s32 -47 32 -77zM299 98c0 -30 -10.5 -55.167 -31.5 -75.5s-46.833 -30.5 -77.5 -30.5c-30 0 -55.5 10.167 -76.5 30.5s-31.5 45.5 -31.5 75.5
s10.5 55.667 31.5 77s46.5 32 76.5 32c30.667 0 56.5 -10.667 77.5 -32s31.5 -47 31.5 -77z" />
    <glyph glyph-name="f700_" unicode="&#xf700;" horiz-adv-x="797" 
d="M752 459c0 -147.333 -42.002 -261.333 -126.002 -342s-195.667 -121 -335 -121c-19.333 0 -39.333 0.666992 -60 2l-114 448l-37 66h201l88 -354c57.333 8 106 40 146 96s60 124.333 60 205c0 69.333 -19.667 125.5 -59 168.5s-91.333 64.5 -156 64.5
c-106 0 -174.667 -39.667 -206 -119h-168c9.33301 78 47.833 141 115.5 189s153.834 72 258.501 72c50.667 0 97.334 -6.33301 140.001 -19c26 18 39 40 39 66h186c0 -56 -30.667 -100.333 -92 -133c79.333 -68.667 119 -165 119 -289z" />
    <glyph glyph-name="f701_" unicode="&#xf701;" 
d="M-330 922h-624v110h624v-110z" />
    <glyph glyph-name="f702_" unicode="&#xf702;" 
d="M-317 922h-625v110h448v105h177v-215z" />
    <glyph glyph-name="f703_" unicode="&#xf703;" 
d="M-276 1034c0 -32.667 -12 -59.5 -36 -80.5s-55.333 -31.5 -94 -31.5h-536v110h407c0 34 12 61.667 36 83s55 32 93 32c38.667 0 70 -10.667 94 -32s36 -48.333 36 -81zM-358 1034c0 28.667 -16 43 -48 43c-31.333 0 -47 -14.333 -47 -43s15.667 -43 47 -43
c32 0 48 14.333 48 43z" />
    <glyph glyph-name="f704_" unicode="&#xf704;" 
d="M-317 922h-625v110h272v105h115v-105h61v105h177v-215z" />
    <glyph glyph-name="f705_" unicode="&#xf705;" 
d="M-338 922h-176v215h176v-215z" />
    <glyph glyph-name="f706_" unicode="&#xf706;" 
d="M-195 922h-419v39c0 40.667 -20.667 61 -62 61h-31v113h148c80.667 0 121 -34.333 121 -103h243v-110z" />
    <glyph glyph-name="f707_" unicode="&#xf707;" 
d="M-287 922h-211v96c0 30 -13.667 45 -41 45h-10l-90 -62l-92 62h-4c-27.333 0 -41 -15 -41 -45v-4h61v-92h-178v104c0 46.667 15.333 82.5 46 107.5s70 37.5 118 37.5h14l78 -53l74 53h18c105.333 0 159.333 -46.333 162 -139h96v-110z" />
    <glyph glyph-name="f708_" unicode="&#xf708;" 
d="M-291 1014h-98v-92h-176v92h-99v86h99v92h176v-92h98v-86z" />
    <glyph glyph-name="f709_" unicode="&#xf709;" 
d="M-297 1006h-100c-48 0 -72 -21.333 -72 -64v-20h-176v67c0 45.333 15 79.833 45 103.5s68.333 35.5 115 35.5h188v-122z" />
    <glyph glyph-name="f70a_" unicode="&#xf70a;" 
d="M-59 922h-177v215h177v-215z" />
    <glyph glyph-name="f70b_" unicode="&#xf70b;" 
d="M47 922h-418v39c0 40.667 -20.333 61 -61 61h-31v113h148c80 0 120 -34.333 120 -103h242v-110z" />
    <glyph glyph-name="f70c_" unicode="&#xf70c;" 
d="M-51 922h-211v96c0 30 -13.667 45 -41 45h-10l-90 -62l-93 62h-4c-27.333 0 -41 -15 -41 -45v-4h62v-92h-178v104c0 46.667 15.333 82.5 46 107.5s69.667 37.5 117 37.5h15l78 -53l73 53h19c104.667 0 158.667 -46.333 162 -139h96v-110z" />
    <glyph glyph-name="f70d_" unicode="&#xf70d;" 
d="M-59 1014h-99v-92h-176v92h-98v86h98v92h176v-92h99v-86z" />
    <glyph glyph-name="f70e_" unicode="&#xf70e;" 
d="M-39 1006h-100c-48 0 -72 -21.333 -72 -64v-20h-176v67c0 45.333 15 79.833 45 103.5s68.333 35.5 115 35.5h188v-122z" />
    <glyph glyph-name="f70f_" unicode="&#xf70f;" horiz-adv-x="1319" 
d="M1257 238c0 -89.333 -36.001 -156.334 -108.001 -201.001c-58.667 -34 -131.667 -51 -219 -51s-160.333 17 -219 51c-72.667 44.667 -109 111.667 -109 201v309c0 95.333 -63.333 143 -190 143c-93.333 0 -154.333 -24.667 -183 -74
c41.333 -25.333 62 -49.666 62 -72.999c0 -14 -8.83301 -31.833 -26.5 -53.5s-26.5 -41.5 -26.5 -59.5v-289h106v-141h-283v430c0 16.667 10.667 34.5 32 53.5s32 33.833 32 44.5c0 12.667 -28.667 34 -86 64c12 76.667 54.333 136.667 127 180
c66.667 41.333 149.334 62 248.001 62c104.667 0 190 -22 256 -66c72 -48 108 -117.667 108 -209v-309c0 -82 50.667 -123 152 -123c100.667 0 151 41 151 123v569h176v-581z" />
    <glyph glyph-name="f710_" unicode="&#xf710;" 
d="M18 922h-684v200h177v-90h507v-110z" />
    <glyph glyph-name="f711_" unicode="&#xf711;" 
d="M-272 1030c0 -34 -12.667 -62 -38 -84s-57.333 -33 -96 -33c-38 0 -69.667 11 -95 33s-38 50 -38 84s12.667 62 38 84s57 33 95 33c38.667 0 70.667 -11 96 -33s38 -50 38 -84zM-354 1030c0 30 -17.333 45 -52 45c-34 0 -51 -15 -51 -45s17 -45 51 -45
c34.667 0 52 15 52 45z" />
    <glyph glyph-name="f712_" unicode="&#xf712;" 
d="M-264 1120h-406c-65.333 0 -98 -20.333 -98 -61c0 -16.667 6 -29.667 18 -39h68l176 76l209 -84v-119l-205 86l-160 -68l-167 2c-50.667 30 -76 76.667 -76 140c0 46 19 85.5 57 118.5s90.667 49.5 158 49.5h426v-101z" />
    <glyph glyph-name="f713_" unicode="&#xf713;" 
d="M-317 1198h-177v174h177v-174z" />
    <glyph glyph-name="f714_" unicode="&#xf714;" 
d="M-197 1198h-376v35c0 36.667 -18.667 55 -56 55h-28v101h133c72 0 108 -31 108 -93h219v-98z" />
    <glyph glyph-name="f715_" unicode="&#xf715;" 
d="M-111 1198h-190.001v86c0 27.333 -12.333 41 -37 41h-10l-80 -55l-84 55h-2c-27.333 0 -39.666 -13.667 -36.999 -41v-4h55v-82h-161v94c0 41.333 14 73.5 42 96.5s63 34.5 105 34.5h14l70 -49l66 49h16c94 0 142.333 -41.667 145 -125h88v-100z" />
    <glyph glyph-name="f716_" unicode="&#xf716;" 
d="M-246 1270h-78v-72h-159v72h-78v78h78v71h159v-71h78v-78z" />
    <glyph glyph-name="f717_" unicode="&#xf717;" 
d="M-256 1169h-90c-44 0 -66 -19 -66 -57v-18h-157v61c0 83.333 47.667 125 143 125h170v-111z" />
    <glyph glyph-name="f718_" unicode="&#xf718;" 
d="M-59 -623h-177v156h-81v111h258v-267z" />
    <glyph glyph-name="f719_" unicode="&#xf719;" 
d="M-59 -487c0 -90.667 -72.333 -136 -217 -136c-139.333 0 -209 45.333 -209 136v20h-62v111h217v-131c0 -32 15.667 -48 47 -48s47 16 47 48v131h177v-131z" />
    <glyph glyph-name="f71a_" unicode="&#xf71a;" 
d="M-59 -471c0 -31.333 -11.333 -58.333 -34 -81s-49.667 -34 -81 -34s-58.333 11.333 -81 34s-34 49.667 -34 81s11.333 58.333 34 81s49.667 34 81 34s58.333 -11.333 81 -34s34 -49.667 34 -81z" />
    <glyph glyph-name="DEL" unicode="&#xf71b;" 
d="M0 -3v1211h-478v-1211h478z" />
    <glyph glyph-name="f71c_" unicode="&#xf71c;" horiz-adv-x="512" 
 />
    <glyph glyph-name="f71d_" unicode="&#xf71d;" horiz-adv-x="512" 
d="M464 -191v191h-416v-191h34v72c11.333 7.33301 23.333 13 36 17s26 6 40 6h187c35.333 0 64 -9 86 -27v-68h33z" />
    <glyph glyph-name=".null" 
 />
    <glyph glyph-name="nonmarkingreturn" horiz-adv-x="512" 
 />
    <glyph glyph-name="glyph236" horiz-adv-x="1599" 
d="M100 0h1399v1599h-1399v-1599zM1401 100h-1200v1399h1200v-1399z" />
    <glyph glyph-name="glyph237" horiz-adv-x="512" 
 />
  </font>
</defs>
</svg>
